<mxfile host="app.diagrams.net" modified="2021-06-06T11:36:20.607Z" agent="5.0 (Windows NT 10.0; Win64; x64) AppleWebKit/537.36 (KHTML, like Gecko) Chrome/91.0.4472.77 Safari/537.36" etag="xz76ECVLSCvpL_OvGoTK" version="14.7.6" type="github">
  <diagram id="qNtHvHr-Q_ltwnV1EGBj" name="Page-1">
    <mxGraphModel dx="6367" dy="3519" grid="1" gridSize="10" guides="1" tooltips="1" connect="1" arrows="1" fold="1" page="1" pageScale="1" pageWidth="827" pageHeight="1169" math="0" shadow="0">
      <root>
        <mxCell id="0" />
        <mxCell id="1" parent="0" />
        <mxCell id="lHE6Wv-7FE4Djr_MWDjM-33" style="edgeStyle=orthogonalEdgeStyle;rounded=0;orthogonalLoop=1;jettySize=auto;html=1;dashed=1;endArrow=open;endFill=0;" parent="1" source="Hz_aNHwt8BgAc0QITuWz-24" target="Hz_aNHwt8BgAc0QITuWz-55" edge="1">
          <mxGeometry relative="1" as="geometry">
            <Array as="points">
              <mxPoint x="495" y="170" />
            </Array>
          </mxGeometry>
        </mxCell>
        <mxCell id="Hz_aNHwt8BgAc0QITuWz-24" value="Team Controller" style="swimlane;fontStyle=1;align=center;verticalAlign=top;childLayout=stackLayout;horizontal=1;startSize=26;horizontalStack=0;resizeParent=1;resizeParentMax=0;resizeLast=0;collapsible=1;marginBottom=0;" parent="1" vertex="1">
          <mxGeometry x="360" y="214" width="270" height="346" as="geometry" />
        </mxCell>
        <mxCell id="Hz_aNHwt8BgAc0QITuWz-25" value="- teamData : Team Data" style="text;strokeColor=none;fillColor=none;align=left;verticalAlign=top;spacingLeft=4;spacingRight=4;overflow=hidden;rotatable=0;points=[[0,0.5],[1,0.5]];portConstraint=eastwest;" parent="Hz_aNHwt8BgAc0QITuWz-24" vertex="1">
          <mxGeometry y="26" width="270" height="26" as="geometry" />
        </mxCell>
        <mxCell id="Hz_aNHwt8BgAc0QITuWz-28" value="- teamMemberData : Team Member Data" style="text;strokeColor=none;fillColor=none;align=left;verticalAlign=top;spacingLeft=4;spacingRight=4;overflow=hidden;rotatable=0;points=[[0,0.5],[1,0.5]];portConstraint=eastwest;" parent="Hz_aNHwt8BgAc0QITuWz-24" vertex="1">
          <mxGeometry y="52" width="270" height="26" as="geometry" />
        </mxCell>
        <mxCell id="-hR4shmU22gH0cobKzlt-282" value="- teamView : Team View" style="text;strokeColor=none;fillColor=none;align=left;verticalAlign=top;spacingLeft=4;spacingRight=4;overflow=hidden;rotatable=0;points=[[0,0.5],[1,0.5]];portConstraint=eastwest;" parent="Hz_aNHwt8BgAc0QITuWz-24" vertex="1">
          <mxGeometry y="78" width="270" height="26" as="geometry" />
        </mxCell>
        <mxCell id="Hz_aNHwt8BgAc0QITuWz-26" value="" style="line;strokeWidth=1;fillColor=none;align=left;verticalAlign=middle;spacingTop=-1;spacingLeft=3;spacingRight=3;rotatable=0;labelPosition=right;points=[];portConstraint=eastwest;" parent="Hz_aNHwt8BgAc0QITuWz-24" vertex="1">
          <mxGeometry y="104" width="270" height="8" as="geometry" />
        </mxCell>
        <mxCell id="Hz_aNHwt8BgAc0QITuWz-27" value="+ createTeam() : Team" style="text;strokeColor=none;fillColor=none;align=left;verticalAlign=top;spacingLeft=4;spacingRight=4;overflow=hidden;rotatable=0;points=[[0,0.5],[1,0.5]];portConstraint=eastwest;" parent="Hz_aNHwt8BgAc0QITuWz-24" vertex="1">
          <mxGeometry y="112" width="270" height="26" as="geometry" />
        </mxCell>
        <mxCell id="Hz_aNHwt8BgAc0QITuWz-50" value="+ createTeamId() : TeamId" style="text;strokeColor=none;fillColor=none;align=left;verticalAlign=top;spacingLeft=4;spacingRight=4;overflow=hidden;rotatable=0;points=[[0,0.5],[1,0.5]];portConstraint=eastwest;" parent="Hz_aNHwt8BgAc0QITuWz-24" vertex="1">
          <mxGeometry y="138" width="270" height="26" as="geometry" />
        </mxCell>
        <mxCell id="Hz_aNHwt8BgAc0QITuWz-51" value="+ changeView()" style="text;strokeColor=none;fillColor=none;align=left;verticalAlign=top;spacingLeft=4;spacingRight=4;overflow=hidden;rotatable=0;points=[[0,0.5],[1,0.5]];portConstraint=eastwest;" parent="Hz_aNHwt8BgAc0QITuWz-24" vertex="1">
          <mxGeometry y="164" width="270" height="26" as="geometry" />
        </mxCell>
        <mxCell id="-hR4shmU22gH0cobKzlt-283" value="+ checkTeam()" style="text;strokeColor=none;fillColor=none;align=left;verticalAlign=top;spacingLeft=4;spacingRight=4;overflow=hidden;rotatable=0;points=[[0,0.5],[1,0.5]];portConstraint=eastwest;" parent="Hz_aNHwt8BgAc0QITuWz-24" vertex="1">
          <mxGeometry y="190" width="270" height="26" as="geometry" />
        </mxCell>
        <mxCell id="-hR4shmU22gH0cobKzlt-284" value="+ joinTeam()" style="text;strokeColor=none;fillColor=none;align=left;verticalAlign=top;spacingLeft=4;spacingRight=4;overflow=hidden;rotatable=0;points=[[0,0.5],[1,0.5]];portConstraint=eastwest;" parent="Hz_aNHwt8BgAc0QITuWz-24" vertex="1">
          <mxGeometry y="216" width="270" height="26" as="geometry" />
        </mxCell>
        <mxCell id="-hR4shmU22gH0cobKzlt-285" value="+ deleteTeam()" style="text;strokeColor=none;fillColor=none;align=left;verticalAlign=top;spacingLeft=4;spacingRight=4;overflow=hidden;rotatable=0;points=[[0,0.5],[1,0.5]];portConstraint=eastwest;" parent="Hz_aNHwt8BgAc0QITuWz-24" vertex="1">
          <mxGeometry y="242" width="270" height="26" as="geometry" />
        </mxCell>
        <mxCell id="-hR4shmU22gH0cobKzlt-286" value="+ deleteMeber()" style="text;strokeColor=none;fillColor=none;align=left;verticalAlign=top;spacingLeft=4;spacingRight=4;overflow=hidden;rotatable=0;points=[[0,0.5],[1,0.5]];portConstraint=eastwest;" parent="Hz_aNHwt8BgAc0QITuWz-24" vertex="1">
          <mxGeometry y="268" width="270" height="26" as="geometry" />
        </mxCell>
        <mxCell id="-hR4shmU22gH0cobKzlt-287" value="+ showTeamData()" style="text;strokeColor=none;fillColor=none;align=left;verticalAlign=top;spacingLeft=4;spacingRight=4;overflow=hidden;rotatable=0;points=[[0,0.5],[1,0.5]];portConstraint=eastwest;" parent="Hz_aNHwt8BgAc0QITuWz-24" vertex="1">
          <mxGeometry y="294" width="270" height="26" as="geometry" />
        </mxCell>
        <mxCell id="-hR4shmU22gH0cobKzlt-288" value="+ changeTeamData()" style="text;strokeColor=none;fillColor=none;align=left;verticalAlign=top;spacingLeft=4;spacingRight=4;overflow=hidden;rotatable=0;points=[[0,0.5],[1,0.5]];portConstraint=eastwest;" parent="Hz_aNHwt8BgAc0QITuWz-24" vertex="1">
          <mxGeometry y="320" width="270" height="26" as="geometry" />
        </mxCell>
        <mxCell id="lHE6Wv-7FE4Djr_MWDjM-88" style="edgeStyle=orthogonalEdgeStyle;rounded=0;orthogonalLoop=1;jettySize=auto;html=1;endArrow=open;endFill=0;dashed=1;" parent="1" source="Hz_aNHwt8BgAc0QITuWz-30" target="-hR4shmU22gH0cobKzlt-156" edge="1">
          <mxGeometry relative="1" as="geometry">
            <Array as="points">
              <mxPoint x="330" y="890" />
              <mxPoint x="330" y="890" />
            </Array>
          </mxGeometry>
        </mxCell>
        <mxCell id="Hz_aNHwt8BgAc0QITuWz-30" value="Main Controller" style="swimlane;fontStyle=1;align=center;verticalAlign=top;childLayout=stackLayout;horizontal=1;startSize=26;horizontalStack=0;resizeParent=1;resizeParentMax=0;resizeLast=0;collapsible=1;marginBottom=0;" parent="1" vertex="1">
          <mxGeometry x="-30" y="810" width="220" height="138" as="geometry" />
        </mxCell>
        <mxCell id="Hz_aNHwt8BgAc0QITuWz-31" value="- mainView : View" style="text;strokeColor=none;fillColor=none;align=left;verticalAlign=top;spacingLeft=4;spacingRight=4;overflow=hidden;rotatable=0;points=[[0,0.5],[1,0.5]];portConstraint=eastwest;" parent="Hz_aNHwt8BgAc0QITuWz-30" vertex="1">
          <mxGeometry y="26" width="220" height="26" as="geometry" />
        </mxCell>
        <mxCell id="Hz_aNHwt8BgAc0QITuWz-32" value="- userData : User Data" style="text;strokeColor=none;fillColor=none;align=left;verticalAlign=top;spacingLeft=4;spacingRight=4;overflow=hidden;rotatable=0;points=[[0,0.5],[1,0.5]];portConstraint=eastwest;" parent="Hz_aNHwt8BgAc0QITuWz-30" vertex="1">
          <mxGeometry y="52" width="220" height="26" as="geometry" />
        </mxCell>
        <mxCell id="Hz_aNHwt8BgAc0QITuWz-33" value="" style="line;strokeWidth=1;fillColor=none;align=left;verticalAlign=middle;spacingTop=-1;spacingLeft=3;spacingRight=3;rotatable=0;labelPosition=right;points=[];portConstraint=eastwest;" parent="Hz_aNHwt8BgAc0QITuWz-30" vertex="1">
          <mxGeometry y="78" width="220" height="8" as="geometry" />
        </mxCell>
        <mxCell id="Hz_aNHwt8BgAc0QITuWz-34" value="+ buttonClicked(event : buttonClick)" style="text;strokeColor=none;fillColor=none;align=left;verticalAlign=top;spacingLeft=4;spacingRight=4;overflow=hidden;rotatable=0;points=[[0,0.5],[1,0.5]];portConstraint=eastwest;" parent="Hz_aNHwt8BgAc0QITuWz-30" vertex="1">
          <mxGeometry y="86" width="220" height="26" as="geometry" />
        </mxCell>
        <mxCell id="-hR4shmU22gH0cobKzlt-289" value="+ changeView()" style="text;strokeColor=none;fillColor=none;align=left;verticalAlign=top;spacingLeft=4;spacingRight=4;overflow=hidden;rotatable=0;points=[[0,0.5],[1,0.5]];portConstraint=eastwest;" parent="Hz_aNHwt8BgAc0QITuWz-30" vertex="1">
          <mxGeometry y="112" width="220" height="26" as="geometry" />
        </mxCell>
        <mxCell id="lHE6Wv-7FE4Djr_MWDjM-47" style="edgeStyle=orthogonalEdgeStyle;rounded=0;orthogonalLoop=1;jettySize=auto;html=1;dashed=1;endArrow=none;endFill=0;startArrow=open;startFill=0;" parent="1" source="Hz_aNHwt8BgAc0QITuWz-35" target="Hz_aNHwt8BgAc0QITuWz-30" edge="1">
          <mxGeometry relative="1" as="geometry">
            <Array as="points">
              <mxPoint x="-130" y="850" />
              <mxPoint x="-130" y="850" />
            </Array>
          </mxGeometry>
        </mxCell>
        <mxCell id="lHE6Wv-7FE4Djr_MWDjM-80" style="edgeStyle=orthogonalEdgeStyle;rounded=0;orthogonalLoop=1;jettySize=auto;html=1;endArrow=open;endFill=0;" parent="1" source="Hz_aNHwt8BgAc0QITuWz-35" target="-hR4shmU22gH0cobKzlt-4" edge="1">
          <mxGeometry relative="1" as="geometry">
            <Array as="points">
              <mxPoint x="-349.5" y="769" />
              <mxPoint x="-349.5" y="769" />
            </Array>
          </mxGeometry>
        </mxCell>
        <mxCell id="lHE6Wv-7FE4Djr_MWDjM-81" style="edgeStyle=orthogonalEdgeStyle;rounded=0;orthogonalLoop=1;jettySize=auto;html=1;endArrow=open;endFill=0;" parent="1" source="Hz_aNHwt8BgAc0QITuWz-35" target="-hR4shmU22gH0cobKzlt-33" edge="1">
          <mxGeometry relative="1" as="geometry">
            <Array as="points">
              <mxPoint x="-219.5" y="759" />
              <mxPoint x="-219.5" y="759" />
            </Array>
          </mxGeometry>
        </mxCell>
        <mxCell id="Hz_aNHwt8BgAc0QITuWz-35" value="Main View" style="swimlane;fontStyle=1;align=center;verticalAlign=top;childLayout=stackLayout;horizontal=1;startSize=26;horizontalStack=0;resizeParent=1;resizeParentMax=0;resizeLast=0;collapsible=1;marginBottom=0;" parent="1" vertex="1">
          <mxGeometry x="-379.5" y="789" width="240" height="190" as="geometry" />
        </mxCell>
        <mxCell id="Hz_aNHwt8BgAc0QITuWz-39" value="- Custom UI : Button" style="text;strokeColor=none;fillColor=none;align=left;verticalAlign=top;spacingLeft=4;spacingRight=4;overflow=hidden;rotatable=0;points=[[0,0.5],[1,0.5]];portConstraint=eastwest;" parent="Hz_aNHwt8BgAc0QITuWz-35" vertex="1">
          <mxGeometry y="26" width="240" height="26" as="geometry" />
        </mxCell>
        <mxCell id="-hR4shmU22gH0cobKzlt-21" value="- CreateMeetingRoomUI : Button" style="text;strokeColor=none;fillColor=none;align=left;verticalAlign=top;spacingLeft=4;spacingRight=4;overflow=hidden;rotatable=0;points=[[0,0.5],[1,0.5]];portConstraint=eastwest;" parent="Hz_aNHwt8BgAc0QITuWz-35" vertex="1">
          <mxGeometry y="52" width="240" height="26" as="geometry" />
        </mxCell>
        <mxCell id="-hR4shmU22gH0cobKzlt-312" value="- CreateTeamBtn : Button" style="text;strokeColor=none;fillColor=none;align=left;verticalAlign=top;spacingLeft=4;spacingRight=4;overflow=hidden;rotatable=0;points=[[0,0.5],[1,0.5]];portConstraint=eastwest;" parent="Hz_aNHwt8BgAc0QITuWz-35" vertex="1">
          <mxGeometry y="78" width="240" height="26" as="geometry" />
        </mxCell>
        <mxCell id="-hR4shmU22gH0cobKzlt-328" value="- JoinTeamBtn : Button" style="text;strokeColor=none;fillColor=none;align=left;verticalAlign=top;spacingLeft=4;spacingRight=4;overflow=hidden;rotatable=0;points=[[0,0.5],[1,0.5]];portConstraint=eastwest;" parent="Hz_aNHwt8BgAc0QITuWz-35" vertex="1">
          <mxGeometry y="104" width="240" height="26" as="geometry" />
        </mxCell>
        <mxCell id="-hR4shmU22gH0cobKzlt-329" value="- CreateTeamPanel : Create Team Panel" style="text;strokeColor=none;fillColor=none;align=left;verticalAlign=top;spacingLeft=4;spacingRight=4;overflow=hidden;rotatable=0;points=[[0,0.5],[1,0.5]];portConstraint=eastwest;" parent="Hz_aNHwt8BgAc0QITuWz-35" vertex="1">
          <mxGeometry y="130" width="240" height="26" as="geometry" />
        </mxCell>
        <mxCell id="-hR4shmU22gH0cobKzlt-330" value="- Join Team Panel : Join Team Panel" style="text;strokeColor=none;fillColor=none;align=left;verticalAlign=top;spacingLeft=4;spacingRight=4;overflow=hidden;rotatable=0;points=[[0,0.5],[1,0.5]];portConstraint=eastwest;" parent="Hz_aNHwt8BgAc0QITuWz-35" vertex="1">
          <mxGeometry y="156" width="240" height="26" as="geometry" />
        </mxCell>
        <mxCell id="Hz_aNHwt8BgAc0QITuWz-37" value="" style="line;strokeWidth=1;fillColor=none;align=left;verticalAlign=middle;spacingTop=-1;spacingLeft=3;spacingRight=3;rotatable=0;labelPosition=right;points=[];portConstraint=eastwest;" parent="Hz_aNHwt8BgAc0QITuWz-35" vertex="1">
          <mxGeometry y="182" width="240" height="8" as="geometry" />
        </mxCell>
        <mxCell id="lHE6Wv-7FE4Djr_MWDjM-59" style="edgeStyle=orthogonalEdgeStyle;rounded=0;orthogonalLoop=1;jettySize=auto;html=1;dashed=1;endArrow=open;endFill=0;" parent="1" source="Hz_aNHwt8BgAc0QITuWz-55" target="-hR4shmU22gH0cobKzlt-209" edge="1">
          <mxGeometry relative="1" as="geometry">
            <Array as="points">
              <mxPoint x="940" y="-66" />
            </Array>
          </mxGeometry>
        </mxCell>
        <mxCell id="lHE6Wv-7FE4Djr_MWDjM-60" style="edgeStyle=orthogonalEdgeStyle;rounded=0;orthogonalLoop=1;jettySize=auto;html=1;dashed=1;endArrow=open;endFill=0;" parent="1" source="Hz_aNHwt8BgAc0QITuWz-55" target="Hz_aNHwt8BgAc0QITuWz-60" edge="1">
          <mxGeometry relative="1" as="geometry">
            <Array as="points">
              <mxPoint x="1300" y="58" />
              <mxPoint x="1300" y="296" />
            </Array>
          </mxGeometry>
        </mxCell>
        <mxCell id="lHE6Wv-7FE4Djr_MWDjM-61" style="edgeStyle=orthogonalEdgeStyle;rounded=0;orthogonalLoop=1;jettySize=auto;html=1;dashed=1;endArrow=open;endFill=0;" parent="1" source="Hz_aNHwt8BgAc0QITuWz-55" target="-hR4shmU22gH0cobKzlt-224" edge="1">
          <mxGeometry relative="1" as="geometry">
            <Array as="points">
              <mxPoint x="1190" y="120" />
            </Array>
          </mxGeometry>
        </mxCell>
        <mxCell id="lHE6Wv-7FE4Djr_MWDjM-62" style="edgeStyle=orthogonalEdgeStyle;rounded=0;orthogonalLoop=1;jettySize=auto;html=1;dashed=1;endArrow=open;endFill=0;" parent="1" source="Hz_aNHwt8BgAc0QITuWz-55" target="-hR4shmU22gH0cobKzlt-230" edge="1">
          <mxGeometry relative="1" as="geometry">
            <Array as="points">
              <mxPoint x="1060" y="170" />
            </Array>
          </mxGeometry>
        </mxCell>
        <mxCell id="lHE6Wv-7FE4Djr_MWDjM-63" style="edgeStyle=orthogonalEdgeStyle;rounded=0;orthogonalLoop=1;jettySize=auto;html=1;dashed=1;endArrow=open;endFill=0;" parent="1" source="Hz_aNHwt8BgAc0QITuWz-55" target="-hR4shmU22gH0cobKzlt-227" edge="1">
          <mxGeometry relative="1" as="geometry">
            <Array as="points">
              <mxPoint x="950" y="720" />
              <mxPoint x="950" y="720" />
            </Array>
          </mxGeometry>
        </mxCell>
        <mxCell id="lHE6Wv-7FE4Djr_MWDjM-64" style="edgeStyle=orthogonalEdgeStyle;rounded=0;orthogonalLoop=1;jettySize=auto;html=1;dashed=1;endArrow=open;endFill=0;" parent="1" source="Hz_aNHwt8BgAc0QITuWz-55" target="-hR4shmU22gH0cobKzlt-221" edge="1">
          <mxGeometry relative="1" as="geometry">
            <Array as="points">
              <mxPoint x="890" y="1470" />
              <mxPoint x="890" y="1470" />
            </Array>
          </mxGeometry>
        </mxCell>
        <mxCell id="Hz_aNHwt8BgAc0QITuWz-55" value="DB Handler" style="swimlane;fontStyle=1;align=center;verticalAlign=top;childLayout=stackLayout;horizontal=1;startSize=26;horizontalStack=0;resizeParent=1;resizeParentMax=0;resizeLast=0;collapsible=1;marginBottom=0;" parent="1" vertex="1">
          <mxGeometry x="770" y="40" width="250" height="294" as="geometry" />
        </mxCell>
        <mxCell id="Hz_aNHwt8BgAc0QITuWz-57" value="" style="line;strokeWidth=1;fillColor=none;align=left;verticalAlign=middle;spacingTop=-1;spacingLeft=3;spacingRight=3;rotatable=0;labelPosition=right;points=[];portConstraint=eastwest;" parent="Hz_aNHwt8BgAc0QITuWz-55" vertex="1">
          <mxGeometry y="26" width="250" height="8" as="geometry" />
        </mxCell>
        <mxCell id="Hz_aNHwt8BgAc0QITuWz-58" value="+ accessTeamData(teamId, userId)" style="text;strokeColor=none;fillColor=none;align=left;verticalAlign=top;spacingLeft=4;spacingRight=4;overflow=hidden;rotatable=0;points=[[0,0.5],[1,0.5]];portConstraint=eastwest;" parent="Hz_aNHwt8BgAc0QITuWz-55" vertex="1">
          <mxGeometry y="34" width="250" height="26" as="geometry" />
        </mxCell>
        <mxCell id="-hR4shmU22gH0cobKzlt-300" value="+ accessAccountInfo(userId, pw)" style="text;strokeColor=none;fillColor=none;align=left;verticalAlign=top;spacingLeft=4;spacingRight=4;overflow=hidden;rotatable=0;points=[[0,0.5],[1,0.5]];portConstraint=eastwest;" parent="Hz_aNHwt8BgAc0QITuWz-55" vertex="1">
          <mxGeometry y="60" width="250" height="26" as="geometry" />
        </mxCell>
        <mxCell id="-hR4shmU22gH0cobKzlt-301" value="+ accessMeetingRoomData(roomId)" style="text;strokeColor=none;fillColor=none;align=left;verticalAlign=top;spacingLeft=4;spacingRight=4;overflow=hidden;rotatable=0;points=[[0,0.5],[1,0.5]];portConstraint=eastwest;" parent="Hz_aNHwt8BgAc0QITuWz-55" vertex="1">
          <mxGeometry y="86" width="250" height="26" as="geometry" />
        </mxCell>
        <mxCell id="-hR4shmU22gH0cobKzlt-302" value="+ accessCustomData(userId)" style="text;strokeColor=none;fillColor=none;align=left;verticalAlign=top;spacingLeft=4;spacingRight=4;overflow=hidden;rotatable=0;points=[[0,0.5],[1,0.5]];portConstraint=eastwest;" parent="Hz_aNHwt8BgAc0QITuWz-55" vertex="1">
          <mxGeometry y="112" width="250" height="26" as="geometry" />
        </mxCell>
        <mxCell id="-hR4shmU22gH0cobKzlt-303" value="+ accessParticipantsData(userId, roomId)" style="text;strokeColor=none;fillColor=none;align=left;verticalAlign=top;spacingLeft=4;spacingRight=4;overflow=hidden;rotatable=0;points=[[0,0.5],[1,0.5]];portConstraint=eastwest;" parent="Hz_aNHwt8BgAc0QITuWz-55" vertex="1">
          <mxGeometry y="138" width="250" height="26" as="geometry" />
        </mxCell>
        <mxCell id="-hR4shmU22gH0cobKzlt-304" value="+ saveTeamData(teamId)" style="text;strokeColor=none;fillColor=none;align=left;verticalAlign=top;spacingLeft=4;spacingRight=4;overflow=hidden;rotatable=0;points=[[0,0.5],[1,0.5]];portConstraint=eastwest;" parent="Hz_aNHwt8BgAc0QITuWz-55" vertex="1">
          <mxGeometry y="164" width="250" height="26" as="geometry" />
        </mxCell>
        <mxCell id="-hR4shmU22gH0cobKzlt-305" value="+ saveAccountInfo(userId)" style="text;strokeColor=none;fillColor=none;align=left;verticalAlign=top;spacingLeft=4;spacingRight=4;overflow=hidden;rotatable=0;points=[[0,0.5],[1,0.5]];portConstraint=eastwest;" parent="Hz_aNHwt8BgAc0QITuWz-55" vertex="1">
          <mxGeometry y="190" width="250" height="26" as="geometry" />
        </mxCell>
        <mxCell id="-hR4shmU22gH0cobKzlt-306" value="+ saveMeetingRoomData(roomId)" style="text;strokeColor=none;fillColor=none;align=left;verticalAlign=top;spacingLeft=4;spacingRight=4;overflow=hidden;rotatable=0;points=[[0,0.5],[1,0.5]];portConstraint=eastwest;" parent="Hz_aNHwt8BgAc0QITuWz-55" vertex="1">
          <mxGeometry y="216" width="250" height="26" as="geometry" />
        </mxCell>
        <mxCell id="-hR4shmU22gH0cobKzlt-307" value="+ saveCustomData(userId)" style="text;strokeColor=none;fillColor=none;align=left;verticalAlign=top;spacingLeft=4;spacingRight=4;overflow=hidden;rotatable=0;points=[[0,0.5],[1,0.5]];portConstraint=eastwest;" parent="Hz_aNHwt8BgAc0QITuWz-55" vertex="1">
          <mxGeometry y="242" width="250" height="26" as="geometry" />
        </mxCell>
        <mxCell id="-hR4shmU22gH0cobKzlt-308" value="+ saveParticipantsData(userId, roomId)" style="text;strokeColor=none;fillColor=none;align=left;verticalAlign=top;spacingLeft=4;spacingRight=4;overflow=hidden;rotatable=0;points=[[0,0.5],[1,0.5]];portConstraint=eastwest;" parent="Hz_aNHwt8BgAc0QITuWz-55" vertex="1">
          <mxGeometry y="268" width="250" height="26" as="geometry" />
        </mxCell>
        <mxCell id="Hz_aNHwt8BgAc0QITuWz-60" value="Meeting Room Model" style="swimlane;fontStyle=1;align=center;verticalAlign=top;childLayout=stackLayout;horizontal=1;startSize=26;horizontalStack=0;resizeParent=1;resizeParentMax=0;resizeLast=0;collapsible=1;marginBottom=0;" parent="1" vertex="1">
          <mxGeometry x="1370" y="270" width="160" height="52" as="geometry" />
        </mxCell>
        <mxCell id="MDP1rMCHdJ5td23b5jNx-1" value="- roomID : int" style="text;strokeColor=none;fillColor=none;align=left;verticalAlign=top;spacingLeft=4;spacingRight=4;overflow=hidden;rotatable=0;points=[[0,0.5],[1,0.5]];portConstraint=eastwest;" parent="Hz_aNHwt8BgAc0QITuWz-60" vertex="1">
          <mxGeometry y="26" width="160" height="26" as="geometry" />
        </mxCell>
        <mxCell id="MDP1rMCHdJ5td23b5jNx-18" style="edgeStyle=orthogonalEdgeStyle;rounded=0;orthogonalLoop=1;jettySize=auto;html=1;endArrow=diamondThin;endFill=1;startSize=6;endSize=6;strokeWidth=1;" parent="1" source="MDP1rMCHdJ5td23b5jNx-5" target="Hz_aNHwt8BgAc0QITuWz-60" edge="1">
          <mxGeometry relative="1" as="geometry">
            <Array as="points">
              <mxPoint x="1450" y="430" />
              <mxPoint x="1450" y="430" />
            </Array>
          </mxGeometry>
        </mxCell>
        <mxCell id="MDP1rMCHdJ5td23b5jNx-5" value="Participants Data" style="swimlane;fontStyle=1;align=center;verticalAlign=top;childLayout=stackLayout;horizontal=1;startSize=26;horizontalStack=0;resizeParent=1;resizeParentMax=0;resizeLast=0;collapsible=1;marginBottom=0;" parent="1" vertex="1">
          <mxGeometry x="1330" y="430" width="240" height="112" as="geometry" />
        </mxCell>
        <mxCell id="MDP1rMCHdJ5td23b5jNx-6" value="- userID : String" style="text;strokeColor=none;fillColor=none;align=left;verticalAlign=top;spacingLeft=4;spacingRight=4;overflow=hidden;rotatable=0;points=[[0,0.5],[1,0.5]];portConstraint=eastwest;" parent="MDP1rMCHdJ5td23b5jNx-5" vertex="1">
          <mxGeometry y="26" width="240" height="26" as="geometry" />
        </mxCell>
        <mxCell id="MDP1rMCHdJ5td23b5jNx-10" value="" style="line;strokeWidth=1;fillColor=none;align=left;verticalAlign=middle;spacingTop=-1;spacingLeft=3;spacingRight=3;rotatable=0;labelPosition=right;points=[];portConstraint=eastwest;" parent="MDP1rMCHdJ5td23b5jNx-5" vertex="1">
          <mxGeometry y="52" width="240" height="8" as="geometry" />
        </mxCell>
        <mxCell id="lHE6Wv-7FE4Djr_MWDjM-99" value="+ getParticipantsData() : userID, roomID" style="text;strokeColor=none;fillColor=none;align=left;verticalAlign=top;spacingLeft=4;spacingRight=4;overflow=hidden;rotatable=0;points=[[0,0.5],[1,0.5]];portConstraint=eastwest;" parent="MDP1rMCHdJ5td23b5jNx-5" vertex="1">
          <mxGeometry y="60" width="240" height="26" as="geometry" />
        </mxCell>
        <mxCell id="lHE6Wv-7FE4Djr_MWDjM-100" value="+ setParticipantsData(userID, roomID)" style="text;strokeColor=none;fillColor=none;align=left;verticalAlign=top;spacingLeft=4;spacingRight=4;overflow=hidden;rotatable=0;points=[[0,0.5],[1,0.5]];portConstraint=eastwest;" parent="MDP1rMCHdJ5td23b5jNx-5" vertex="1">
          <mxGeometry y="86" width="240" height="26" as="geometry" />
        </mxCell>
        <mxCell id="MDP1rMCHdJ5td23b5jNx-22" style="edgeStyle=orthogonalEdgeStyle;rounded=0;orthogonalLoop=1;jettySize=auto;html=1;endArrow=diamondThin;endFill=1;startSize=6;endSize=6;strokeWidth=1;" parent="1" source="MDP1rMCHdJ5td23b5jNx-19" target="Hz_aNHwt8BgAc0QITuWz-60" edge="1">
          <mxGeometry relative="1" as="geometry">
            <Array as="points">
              <mxPoint x="1650" y="296" />
            </Array>
          </mxGeometry>
        </mxCell>
        <mxCell id="MDP1rMCHdJ5td23b5jNx-19" value="Meeting Room Data" style="swimlane;fontStyle=1;align=center;verticalAlign=top;childLayout=stackLayout;horizontal=1;startSize=26;horizontalStack=0;resizeParent=1;resizeParentMax=0;resizeLast=0;collapsible=1;marginBottom=0;" parent="1" vertex="1">
          <mxGeometry x="1480" y="616" width="410" height="194" as="geometry" />
        </mxCell>
        <mxCell id="MDP1rMCHdJ5td23b5jNx-4" value="- creator : String" style="text;strokeColor=none;fillColor=none;align=left;verticalAlign=top;spacingLeft=4;spacingRight=4;overflow=hidden;rotatable=0;points=[[0,0.5],[1,0.5]];portConstraint=eastwest;" parent="MDP1rMCHdJ5td23b5jNx-19" vertex="1">
          <mxGeometry y="26" width="410" height="30" as="geometry" />
        </mxCell>
        <mxCell id="MDP1rMCHdJ5td23b5jNx-2" value="- isActive : Bool" style="text;strokeColor=none;fillColor=none;align=left;verticalAlign=top;spacingLeft=4;spacingRight=4;overflow=hidden;rotatable=0;points=[[0,0.5],[1,0.5]];portConstraint=eastwest;" parent="MDP1rMCHdJ5td23b5jNx-19" vertex="1">
          <mxGeometry y="56" width="410" height="26" as="geometry" />
        </mxCell>
        <mxCell id="Hz_aNHwt8BgAc0QITuWz-61" value="- createTime : DateTime" style="text;strokeColor=none;fillColor=none;align=left;verticalAlign=top;spacingLeft=4;spacingRight=4;overflow=hidden;rotatable=0;points=[[0,0.5],[1,0.5]];portConstraint=eastwest;" parent="MDP1rMCHdJ5td23b5jNx-19" vertex="1">
          <mxGeometry y="82" width="410" height="26" as="geometry" />
        </mxCell>
        <mxCell id="lHE6Wv-7FE4Djr_MWDjM-87" value="- isTeam : int" style="text;strokeColor=none;fillColor=none;align=left;verticalAlign=top;spacingLeft=4;spacingRight=4;overflow=hidden;rotatable=0;points=[[0,0.5],[1,0.5]];portConstraint=eastwest;" parent="MDP1rMCHdJ5td23b5jNx-19" vertex="1">
          <mxGeometry y="108" width="410" height="26" as="geometry" />
        </mxCell>
        <mxCell id="Hz_aNHwt8BgAc0QITuWz-62" value="" style="line;strokeWidth=1;fillColor=none;align=left;verticalAlign=middle;spacingTop=-1;spacingLeft=3;spacingRight=3;rotatable=0;labelPosition=right;points=[];portConstraint=eastwest;" parent="MDP1rMCHdJ5td23b5jNx-19" vertex="1">
          <mxGeometry y="134" width="410" height="8" as="geometry" />
        </mxCell>
        <mxCell id="lHE6Wv-7FE4Djr_MWDjM-101" value="+ getMeetingRoomData() : roomID, creator, isActive, createTime, isTeam" style="text;strokeColor=none;fillColor=none;align=left;verticalAlign=top;spacingLeft=4;spacingRight=4;overflow=hidden;rotatable=0;points=[[0,0.5],[1,0.5]];portConstraint=eastwest;" parent="MDP1rMCHdJ5td23b5jNx-19" vertex="1">
          <mxGeometry y="142" width="410" height="26" as="geometry" />
        </mxCell>
        <mxCell id="lHE6Wv-7FE4Djr_MWDjM-102" value="+ setMeetingRoomData(roomID, creator, isActive, createTime, isTeam)" style="text;strokeColor=none;fillColor=none;align=left;verticalAlign=top;spacingLeft=4;spacingRight=4;overflow=hidden;rotatable=0;points=[[0,0.5],[1,0.5]];portConstraint=eastwest;" parent="MDP1rMCHdJ5td23b5jNx-19" vertex="1">
          <mxGeometry y="168" width="410" height="26" as="geometry" />
        </mxCell>
        <mxCell id="-hR4shmU22gH0cobKzlt-4" value="Create Team Panel" style="swimlane;fontStyle=1;align=center;verticalAlign=top;childLayout=stackLayout;horizontal=1;startSize=26;horizontalStack=0;resizeParent=1;resizeParentMax=0;resizeLast=0;collapsible=1;marginBottom=0;" parent="1" vertex="1">
          <mxGeometry x="-500" y="620" width="189" height="112" as="geometry" />
        </mxCell>
        <mxCell id="Hz_aNHwt8BgAc0QITuWz-36" value="- CreateBtn : Button" style="text;strokeColor=none;fillColor=none;align=left;verticalAlign=top;spacingLeft=4;spacingRight=4;overflow=hidden;rotatable=0;points=[[0,0.5],[1,0.5]];portConstraint=eastwest;" parent="-hR4shmU22gH0cobKzlt-4" vertex="1">
          <mxGeometry y="26" width="189" height="26" as="geometry" />
        </mxCell>
        <mxCell id="-hR4shmU22gH0cobKzlt-331" value="- teamName : Text Field" style="text;strokeColor=none;fillColor=none;align=left;verticalAlign=top;spacingLeft=4;spacingRight=4;overflow=hidden;rotatable=0;points=[[0,0.5],[1,0.5]];portConstraint=eastwest;" parent="-hR4shmU22gH0cobKzlt-4" vertex="1">
          <mxGeometry y="52" width="189" height="26" as="geometry" />
        </mxCell>
        <mxCell id="-hR4shmU22gH0cobKzlt-313" value="- teamDescription : Text Field" style="text;strokeColor=none;fillColor=none;align=left;verticalAlign=top;spacingLeft=4;spacingRight=4;overflow=hidden;rotatable=0;points=[[0,0.5],[1,0.5]];portConstraint=eastwest;" parent="-hR4shmU22gH0cobKzlt-4" vertex="1">
          <mxGeometry y="78" width="189" height="26" as="geometry" />
        </mxCell>
        <mxCell id="-hR4shmU22gH0cobKzlt-7" value="" style="line;strokeWidth=1;fillColor=none;align=left;verticalAlign=middle;spacingTop=-1;spacingLeft=3;spacingRight=3;rotatable=0;labelPosition=right;points=[];portConstraint=eastwest;" parent="-hR4shmU22gH0cobKzlt-4" vertex="1">
          <mxGeometry y="104" width="189" height="8" as="geometry" />
        </mxCell>
        <mxCell id="-hR4shmU22gH0cobKzlt-33" value="Join Team Panel" style="swimlane;fontStyle=1;align=center;verticalAlign=top;childLayout=stackLayout;horizontal=1;startSize=26;horizontalStack=0;resizeParent=1;resizeParentMax=0;resizeLast=0;collapsible=1;marginBottom=0;" parent="1" vertex="1">
          <mxGeometry x="-278.5" y="633" width="189" height="86" as="geometry" />
        </mxCell>
        <mxCell id="-hR4shmU22gH0cobKzlt-314" value="- JoinBtn : Button" style="text;strokeColor=none;fillColor=none;align=left;verticalAlign=top;spacingLeft=4;spacingRight=4;overflow=hidden;rotatable=0;points=[[0,0.5],[1,0.5]];portConstraint=eastwest;" parent="-hR4shmU22gH0cobKzlt-33" vertex="1">
          <mxGeometry y="26" width="189" height="26" as="geometry" />
        </mxCell>
        <mxCell id="-hR4shmU22gH0cobKzlt-332" value="- teamCode : Text Field" style="text;strokeColor=none;fillColor=none;align=left;verticalAlign=top;spacingLeft=4;spacingRight=4;overflow=hidden;rotatable=0;points=[[0,0.5],[1,0.5]];portConstraint=eastwest;" parent="-hR4shmU22gH0cobKzlt-33" vertex="1">
          <mxGeometry y="52" width="189" height="26" as="geometry" />
        </mxCell>
        <mxCell id="-hR4shmU22gH0cobKzlt-37" value="" style="line;strokeWidth=1;fillColor=none;align=left;verticalAlign=middle;spacingTop=-1;spacingLeft=3;spacingRight=3;rotatable=0;labelPosition=right;points=[];portConstraint=eastwest;" parent="-hR4shmU22gH0cobKzlt-33" vertex="1">
          <mxGeometry y="78" width="189" height="8" as="geometry" />
        </mxCell>
        <mxCell id="lHE6Wv-7FE4Djr_MWDjM-48" style="edgeStyle=orthogonalEdgeStyle;rounded=0;orthogonalLoop=1;jettySize=auto;html=1;dashed=1;endArrow=none;endFill=0;startArrow=open;startFill=0;" parent="1" source="-hR4shmU22gH0cobKzlt-53" target="-hR4shmU22gH0cobKzlt-156" edge="1">
          <mxGeometry relative="1" as="geometry">
            <Array as="points">
              <mxPoint x="180" y="1170" />
              <mxPoint x="180" y="1170" />
            </Array>
          </mxGeometry>
        </mxCell>
        <mxCell id="-hR4shmU22gH0cobKzlt-53" value="Meeting Room View" style="swimlane;fontStyle=1;align=center;verticalAlign=top;childLayout=stackLayout;horizontal=1;startSize=26;horizontalStack=0;resizeParent=1;resizeParentMax=0;resizeLast=0;collapsible=1;marginBottom=0;" parent="1" vertex="1">
          <mxGeometry x="-182.5" y="1100" width="266" height="216" as="geometry" />
        </mxCell>
        <mxCell id="-hR4shmU22gH0cobKzlt-54" value="- chatPanel : Chatting Panel" style="text;strokeColor=none;fillColor=none;align=left;verticalAlign=top;spacingLeft=4;spacingRight=4;overflow=hidden;rotatable=0;points=[[0,0.5],[1,0.5]];portConstraint=eastwest;" parent="-hR4shmU22gH0cobKzlt-53" vertex="1">
          <mxGeometry y="26" width="266" height="26" as="geometry" />
        </mxCell>
        <mxCell id="-hR4shmU22gH0cobKzlt-55" value="- sharedScreenPanel : Panel" style="text;strokeColor=none;fillColor=none;align=left;verticalAlign=top;spacingLeft=4;spacingRight=4;overflow=hidden;rotatable=0;points=[[0,0.5],[1,0.5]];portConstraint=eastwest;" parent="-hR4shmU22gH0cobKzlt-53" vertex="1">
          <mxGeometry y="52" width="266" height="26" as="geometry" />
        </mxCell>
        <mxCell id="-hR4shmU22gH0cobKzlt-322" value="- sharingBtn : Button" style="text;strokeColor=none;fillColor=none;align=left;verticalAlign=top;spacingLeft=4;spacingRight=4;overflow=hidden;rotatable=0;points=[[0,0.5],[1,0.5]];portConstraint=eastwest;" parent="-hR4shmU22gH0cobKzlt-53" vertex="1">
          <mxGeometry y="78" width="266" height="26" as="geometry" />
        </mxCell>
        <mxCell id="-hR4shmU22gH0cobKzlt-56" value="- characterPanel : Character Panel" style="text;strokeColor=none;fillColor=none;align=left;verticalAlign=top;spacingLeft=4;spacingRight=4;overflow=hidden;rotatable=0;points=[[0,0.5],[1,0.5]];portConstraint=eastwest;" parent="-hR4shmU22gH0cobKzlt-53" vertex="1">
          <mxGeometry y="104" width="266" height="26" as="geometry" />
        </mxCell>
        <mxCell id="-hR4shmU22gH0cobKzlt-318" value="- gestureUI : Button" style="text;strokeColor=none;fillColor=none;align=left;verticalAlign=top;spacingLeft=4;spacingRight=4;overflow=hidden;rotatable=0;points=[[0,0.5],[1,0.5]];portConstraint=eastwest;" parent="-hR4shmU22gH0cobKzlt-53" vertex="1">
          <mxGeometry y="130" width="266" height="26" as="geometry" />
        </mxCell>
        <mxCell id="-hR4shmU22gH0cobKzlt-319" value="- optionPanel : Option Panel" style="text;strokeColor=none;fillColor=none;align=left;verticalAlign=top;spacingLeft=4;spacingRight=4;overflow=hidden;rotatable=0;points=[[0,0.5],[1,0.5]];portConstraint=eastwest;" parent="-hR4shmU22gH0cobKzlt-53" vertex="1">
          <mxGeometry y="156" width="266" height="26" as="geometry" />
        </mxCell>
        <mxCell id="lHE6Wv-7FE4Djr_MWDjM-3" value="- leaveMeetingRoomBtn : Button" style="text;strokeColor=none;fillColor=none;align=left;verticalAlign=top;spacingLeft=4;spacingRight=4;overflow=hidden;rotatable=0;points=[[0,0.5],[1,0.5]];portConstraint=eastwest;" parent="-hR4shmU22gH0cobKzlt-53" vertex="1">
          <mxGeometry y="182" width="266" height="26" as="geometry" />
        </mxCell>
        <mxCell id="-hR4shmU22gH0cobKzlt-57" value="" style="line;strokeWidth=1;fillColor=none;align=left;verticalAlign=middle;spacingTop=-1;spacingLeft=3;spacingRight=3;rotatable=0;labelPosition=right;points=[];portConstraint=eastwest;" parent="-hR4shmU22gH0cobKzlt-53" vertex="1">
          <mxGeometry y="208" width="266" height="8" as="geometry" />
        </mxCell>
        <mxCell id="-hR4shmU22gH0cobKzlt-58" style="edgeStyle=orthogonalEdgeStyle;rounded=0;orthogonalLoop=1;jettySize=auto;html=1;dashed=1;endArrow=open;endFill=0;" parent="1" source="-hR4shmU22gH0cobKzlt-59" target="-hR4shmU22gH0cobKzlt-53" edge="1">
          <mxGeometry relative="1" as="geometry">
            <Array as="points">
              <mxPoint x="-332.5" y="1208" />
            </Array>
          </mxGeometry>
        </mxCell>
        <mxCell id="-hR4shmU22gH0cobKzlt-59" value="Chatting Panel" style="swimlane;fontStyle=1;align=center;verticalAlign=top;childLayout=stackLayout;horizontal=1;startSize=26;horizontalStack=0;resizeParent=1;resizeParentMax=0;resizeLast=0;collapsible=1;marginBottom=0;" parent="1" vertex="1">
          <mxGeometry x="-470" y="1190" width="189" height="82" as="geometry" />
        </mxCell>
        <mxCell id="-hR4shmU22gH0cobKzlt-60" value="- chatLog : ListView" style="text;strokeColor=none;fillColor=none;align=left;verticalAlign=top;spacingLeft=4;spacingRight=4;overflow=hidden;rotatable=0;points=[[0,0.5],[1,0.5]];portConstraint=eastwest;" parent="-hR4shmU22gH0cobKzlt-59" vertex="1">
          <mxGeometry y="26" width="189" height="24" as="geometry" />
        </mxCell>
        <mxCell id="-hR4shmU22gH0cobKzlt-321" value="- chatPanel : TextField" style="text;strokeColor=none;fillColor=none;align=left;verticalAlign=top;spacingLeft=4;spacingRight=4;overflow=hidden;rotatable=0;points=[[0,0.5],[1,0.5]];portConstraint=eastwest;" parent="-hR4shmU22gH0cobKzlt-59" vertex="1">
          <mxGeometry y="50" width="189" height="24" as="geometry" />
        </mxCell>
        <mxCell id="-hR4shmU22gH0cobKzlt-63" value="" style="line;strokeWidth=1;fillColor=none;align=left;verticalAlign=middle;spacingTop=-1;spacingLeft=3;spacingRight=3;rotatable=0;labelPosition=right;points=[];portConstraint=eastwest;" parent="-hR4shmU22gH0cobKzlt-59" vertex="1">
          <mxGeometry y="74" width="189" height="8" as="geometry" />
        </mxCell>
        <mxCell id="-hR4shmU22gH0cobKzlt-70" style="edgeStyle=orthogonalEdgeStyle;rounded=0;orthogonalLoop=1;jettySize=auto;html=1;dashed=1;endArrow=open;endFill=0;" parent="1" source="-hR4shmU22gH0cobKzlt-71" target="-hR4shmU22gH0cobKzlt-53" edge="1">
          <mxGeometry relative="1" as="geometry">
            <Array as="points">
              <mxPoint x="-222.5" y="1290" />
              <mxPoint x="-222.5" y="1290" />
            </Array>
          </mxGeometry>
        </mxCell>
        <mxCell id="-hR4shmU22gH0cobKzlt-71" value="Character Panel" style="swimlane;fontStyle=1;align=center;verticalAlign=top;childLayout=stackLayout;horizontal=1;startSize=26;horizontalStack=0;resizeParent=1;resizeParentMax=0;resizeLast=0;collapsible=1;marginBottom=0;" parent="1" vertex="1">
          <mxGeometry x="-470" y="1280" width="189" height="58" as="geometry" />
        </mxCell>
        <mxCell id="-hR4shmU22gH0cobKzlt-72" value="- characterVideo : Video" style="text;strokeColor=none;fillColor=none;align=left;verticalAlign=top;spacingLeft=4;spacingRight=4;overflow=hidden;rotatable=0;points=[[0,0.5],[1,0.5]];portConstraint=eastwest;" parent="-hR4shmU22gH0cobKzlt-71" vertex="1">
          <mxGeometry y="26" width="189" height="24" as="geometry" />
        </mxCell>
        <mxCell id="-hR4shmU22gH0cobKzlt-75" value="" style="line;strokeWidth=1;fillColor=none;align=left;verticalAlign=middle;spacingTop=-1;spacingLeft=3;spacingRight=3;rotatable=0;labelPosition=right;points=[];portConstraint=eastwest;" parent="-hR4shmU22gH0cobKzlt-71" vertex="1">
          <mxGeometry y="50" width="189" height="8" as="geometry" />
        </mxCell>
        <mxCell id="-hR4shmU22gH0cobKzlt-86" style="edgeStyle=orthogonalEdgeStyle;rounded=0;orthogonalLoop=1;jettySize=auto;html=1;dashed=1;endArrow=open;endFill=0;" parent="1" source="-hR4shmU22gH0cobKzlt-81" target="-hR4shmU22gH0cobKzlt-53" edge="1">
          <mxGeometry relative="1" as="geometry">
            <Array as="points">
              <mxPoint x="-212.5" y="1141" />
              <mxPoint x="-212.5" y="1141" />
            </Array>
          </mxGeometry>
        </mxCell>
        <mxCell id="-hR4shmU22gH0cobKzlt-81" value="Option Panel" style="swimlane;fontStyle=1;align=center;verticalAlign=top;childLayout=stackLayout;horizontal=1;startSize=26;horizontalStack=0;resizeParent=1;resizeParentMax=0;resizeLast=0;collapsible=1;marginBottom=0;" parent="1" vertex="1">
          <mxGeometry x="-470" y="1100" width="189" height="82" as="geometry" />
        </mxCell>
        <mxCell id="-hR4shmU22gH0cobKzlt-82" value="- is_highlight : Button" style="text;strokeColor=none;fillColor=none;align=left;verticalAlign=top;spacingLeft=4;spacingRight=4;overflow=hidden;rotatable=0;points=[[0,0.5],[1,0.5]];portConstraint=eastwest;" parent="-hR4shmU22gH0cobKzlt-81" vertex="1">
          <mxGeometry y="26" width="189" height="24" as="geometry" />
        </mxCell>
        <mxCell id="-hR4shmU22gH0cobKzlt-83" value="- is_speechBubble : Button" style="text;strokeColor=none;fillColor=none;align=left;verticalAlign=top;spacingLeft=4;spacingRight=4;overflow=hidden;rotatable=0;points=[[0,0.5],[1,0.5]];portConstraint=eastwest;" parent="-hR4shmU22gH0cobKzlt-81" vertex="1">
          <mxGeometry y="50" width="189" height="24" as="geometry" />
        </mxCell>
        <mxCell id="-hR4shmU22gH0cobKzlt-85" value="" style="line;strokeWidth=1;fillColor=none;align=left;verticalAlign=middle;spacingTop=-1;spacingLeft=3;spacingRight=3;rotatable=0;labelPosition=right;points=[];portConstraint=eastwest;" parent="-hR4shmU22gH0cobKzlt-81" vertex="1">
          <mxGeometry y="74" width="189" height="8" as="geometry" />
        </mxCell>
        <mxCell id="lHE6Wv-7FE4Djr_MWDjM-46" style="edgeStyle=orthogonalEdgeStyle;rounded=0;orthogonalLoop=1;jettySize=auto;html=1;dashed=1;endArrow=none;endFill=0;startArrow=open;startFill=0;" parent="1" source="-hR4shmU22gH0cobKzlt-88" target="Hz_aNHwt8BgAc0QITuWz-24" edge="1">
          <mxGeometry relative="1" as="geometry">
            <Array as="points">
              <mxPoint x="-20" y="437" />
              <mxPoint x="-20" y="437" />
            </Array>
          </mxGeometry>
        </mxCell>
        <mxCell id="lHE6Wv-7FE4Djr_MWDjM-70" style="edgeStyle=orthogonalEdgeStyle;rounded=0;orthogonalLoop=1;jettySize=auto;html=1;endArrow=open;endFill=0;" parent="1" source="-hR4shmU22gH0cobKzlt-88" target="-hR4shmU22gH0cobKzlt-94" edge="1">
          <mxGeometry relative="1" as="geometry">
            <Array as="points">
              <mxPoint x="-267.5" y="360" />
              <mxPoint x="-267.5" y="271" />
            </Array>
          </mxGeometry>
        </mxCell>
        <mxCell id="lHE6Wv-7FE4Djr_MWDjM-71" style="edgeStyle=orthogonalEdgeStyle;rounded=0;orthogonalLoop=1;jettySize=auto;html=1;endArrow=open;endFill=0;" parent="1" source="-hR4shmU22gH0cobKzlt-88" target="-hR4shmU22gH0cobKzlt-100" edge="1">
          <mxGeometry relative="1" as="geometry">
            <Array as="points">
              <mxPoint x="-251.5" y="387" />
              <mxPoint x="-251.5" y="387" />
            </Array>
          </mxGeometry>
        </mxCell>
        <mxCell id="lHE6Wv-7FE4Djr_MWDjM-72" style="edgeStyle=orthogonalEdgeStyle;rounded=0;orthogonalLoop=1;jettySize=auto;html=1;endArrow=open;endFill=0;" parent="1" source="-hR4shmU22gH0cobKzlt-88" target="-hR4shmU22gH0cobKzlt-111" edge="1">
          <mxGeometry relative="1" as="geometry">
            <Array as="points">
              <mxPoint x="-267.5" y="410" />
              <mxPoint x="-267.5" y="509" />
            </Array>
          </mxGeometry>
        </mxCell>
        <mxCell id="-hR4shmU22gH0cobKzlt-88" value="Team View" style="swimlane;fontStyle=1;align=center;verticalAlign=top;childLayout=stackLayout;horizontal=1;startSize=26;horizontalStack=0;resizeParent=1;resizeParentMax=0;resizeLast=0;collapsible=1;marginBottom=0;" parent="1" vertex="1">
          <mxGeometry x="-234.5" y="310" width="303" height="164" as="geometry" />
        </mxCell>
        <mxCell id="-hR4shmU22gH0cobKzlt-89" value="- TeamManagementPanel : Team Management Panel" style="text;strokeColor=none;fillColor=none;align=left;verticalAlign=top;spacingLeft=4;spacingRight=4;overflow=hidden;rotatable=0;points=[[0,0.5],[1,0.5]];portConstraint=eastwest;" parent="-hR4shmU22gH0cobKzlt-88" vertex="1">
          <mxGeometry y="26" width="303" height="26" as="geometry" />
        </mxCell>
        <mxCell id="-hR4shmU22gH0cobKzlt-91" value="- JoinRoomUI : Button" style="text;strokeColor=none;fillColor=none;align=left;verticalAlign=top;spacingLeft=4;spacingRight=4;overflow=hidden;rotatable=0;points=[[0,0.5],[1,0.5]];portConstraint=eastwest;" parent="-hR4shmU22gH0cobKzlt-88" vertex="1">
          <mxGeometry y="52" width="303" height="26" as="geometry" />
        </mxCell>
        <mxCell id="-hR4shmU22gH0cobKzlt-90" value="- TeamInfoPanel : Team Info Panel" style="text;strokeColor=none;fillColor=none;align=left;verticalAlign=top;spacingLeft=4;spacingRight=4;overflow=hidden;rotatable=0;points=[[0,0.5],[1,0.5]];portConstraint=eastwest;" parent="-hR4shmU22gH0cobKzlt-88" vertex="1">
          <mxGeometry y="78" width="303" height="26" as="geometry" />
        </mxCell>
        <mxCell id="lHE6Wv-7FE4Djr_MWDjM-2" value="- RecordingStoragePanel : Recording Storage Panel" style="text;strokeColor=none;fillColor=none;align=left;verticalAlign=top;spacingLeft=4;spacingRight=4;overflow=hidden;rotatable=0;points=[[0,0.5],[1,0.5]];portConstraint=eastwest;" parent="-hR4shmU22gH0cobKzlt-88" vertex="1">
          <mxGeometry y="104" width="303" height="26" as="geometry" />
        </mxCell>
        <mxCell id="lHE6Wv-7FE4Djr_MWDjM-1" value="- LeaveTeamBtn : Button" style="text;strokeColor=none;fillColor=none;align=left;verticalAlign=top;spacingLeft=4;spacingRight=4;overflow=hidden;rotatable=0;points=[[0,0.5],[1,0.5]];portConstraint=eastwest;" parent="-hR4shmU22gH0cobKzlt-88" vertex="1">
          <mxGeometry y="130" width="303" height="26" as="geometry" />
        </mxCell>
        <mxCell id="-hR4shmU22gH0cobKzlt-92" value="" style="line;strokeWidth=1;fillColor=none;align=left;verticalAlign=middle;spacingTop=-1;spacingLeft=3;spacingRight=3;rotatable=0;labelPosition=right;points=[];portConstraint=eastwest;" parent="-hR4shmU22gH0cobKzlt-88" vertex="1">
          <mxGeometry y="156" width="303" height="8" as="geometry" />
        </mxCell>
        <mxCell id="-hR4shmU22gH0cobKzlt-94" value="Team Management Panel" style="swimlane;fontStyle=1;align=center;verticalAlign=top;childLayout=stackLayout;horizontal=1;startSize=26;horizontalStack=0;resizeParent=1;resizeParentMax=0;resizeLast=0;collapsible=1;marginBottom=0;" parent="1" vertex="1">
          <mxGeometry x="-488.5" y="230" width="189" height="82" as="geometry" />
        </mxCell>
        <mxCell id="-hR4shmU22gH0cobKzlt-95" value="- TeamMemberList : ListView" style="text;strokeColor=none;fillColor=none;align=left;verticalAlign=top;spacingLeft=4;spacingRight=4;overflow=hidden;rotatable=0;points=[[0,0.5],[1,0.5]];portConstraint=eastwest;" parent="-hR4shmU22gH0cobKzlt-94" vertex="1">
          <mxGeometry y="26" width="189" height="24" as="geometry" />
        </mxCell>
        <mxCell id="-hR4shmU22gH0cobKzlt-96" value="- TeamManagementUI : Button" style="text;strokeColor=none;fillColor=none;align=left;verticalAlign=top;spacingLeft=4;spacingRight=4;overflow=hidden;rotatable=0;points=[[0,0.5],[1,0.5]];portConstraint=eastwest;" parent="-hR4shmU22gH0cobKzlt-94" vertex="1">
          <mxGeometry y="50" width="189" height="24" as="geometry" />
        </mxCell>
        <mxCell id="-hR4shmU22gH0cobKzlt-98" value="" style="line;strokeWidth=1;fillColor=none;align=left;verticalAlign=middle;spacingTop=-1;spacingLeft=3;spacingRight=3;rotatable=0;labelPosition=right;points=[];portConstraint=eastwest;" parent="-hR4shmU22gH0cobKzlt-94" vertex="1">
          <mxGeometry y="74" width="189" height="8" as="geometry" />
        </mxCell>
        <mxCell id="-hR4shmU22gH0cobKzlt-100" value="Team Info Panel" style="swimlane;fontStyle=1;align=center;verticalAlign=top;childLayout=stackLayout;horizontal=1;startSize=26;horizontalStack=0;resizeParent=1;resizeParentMax=0;resizeLast=0;collapsible=1;marginBottom=0;" parent="1" vertex="1">
          <mxGeometry x="-488.5" y="334" width="189" height="106" as="geometry" />
        </mxCell>
        <mxCell id="-hR4shmU22gH0cobKzlt-101" value="- TeamNamePanel : Panel" style="text;strokeColor=none;fillColor=none;align=left;verticalAlign=top;spacingLeft=4;spacingRight=4;overflow=hidden;rotatable=0;points=[[0,0.5],[1,0.5]];portConstraint=eastwest;" parent="-hR4shmU22gH0cobKzlt-100" vertex="1">
          <mxGeometry y="26" width="189" height="24" as="geometry" />
        </mxCell>
        <mxCell id="-hR4shmU22gH0cobKzlt-102" value="- TeamDescriptionPanel : Panel" style="text;strokeColor=none;fillColor=none;align=left;verticalAlign=top;spacingLeft=4;spacingRight=4;overflow=hidden;rotatable=0;points=[[0,0.5],[1,0.5]];portConstraint=eastwest;" parent="-hR4shmU22gH0cobKzlt-100" vertex="1">
          <mxGeometry y="50" width="189" height="24" as="geometry" />
        </mxCell>
        <mxCell id="-hR4shmU22gH0cobKzlt-103" value="- TeamMemberList : ListView" style="text;strokeColor=none;fillColor=none;align=left;verticalAlign=top;spacingLeft=4;spacingRight=4;overflow=hidden;rotatable=0;points=[[0,0.5],[1,0.5]];portConstraint=eastwest;" parent="-hR4shmU22gH0cobKzlt-100" vertex="1">
          <mxGeometry y="74" width="189" height="24" as="geometry" />
        </mxCell>
        <mxCell id="-hR4shmU22gH0cobKzlt-104" value="" style="line;strokeWidth=1;fillColor=none;align=left;verticalAlign=middle;spacingTop=-1;spacingLeft=3;spacingRight=3;rotatable=0;labelPosition=right;points=[];portConstraint=eastwest;" parent="-hR4shmU22gH0cobKzlt-100" vertex="1">
          <mxGeometry y="98" width="189" height="8" as="geometry" />
        </mxCell>
        <mxCell id="-hR4shmU22gH0cobKzlt-111" value="Recording Storage Panel" style="swimlane;fontStyle=1;align=center;verticalAlign=top;childLayout=stackLayout;horizontal=1;startSize=26;horizontalStack=0;resizeParent=1;resizeParentMax=0;resizeLast=0;collapsible=1;marginBottom=0;" parent="1" vertex="1">
          <mxGeometry x="-488.5" y="468" width="189" height="58" as="geometry" />
        </mxCell>
        <mxCell id="-hR4shmU22gH0cobKzlt-113" value="- recordingVideo : Video" style="text;strokeColor=none;fillColor=none;align=left;verticalAlign=top;spacingLeft=4;spacingRight=4;overflow=hidden;rotatable=0;points=[[0,0.5],[1,0.5]];portConstraint=eastwest;" parent="-hR4shmU22gH0cobKzlt-111" vertex="1">
          <mxGeometry y="26" width="189" height="24" as="geometry" />
        </mxCell>
        <mxCell id="-hR4shmU22gH0cobKzlt-115" value="" style="line;strokeWidth=1;fillColor=none;align=left;verticalAlign=middle;spacingTop=-1;spacingLeft=3;spacingRight=3;rotatable=0;labelPosition=right;points=[];portConstraint=eastwest;" parent="-hR4shmU22gH0cobKzlt-111" vertex="1">
          <mxGeometry y="50" width="189" height="8" as="geometry" />
        </mxCell>
        <mxCell id="lHE6Wv-7FE4Djr_MWDjM-65" style="edgeStyle=orthogonalEdgeStyle;rounded=0;orthogonalLoop=1;jettySize=auto;html=1;endArrow=open;endFill=0;" parent="1" source="-hR4shmU22gH0cobKzlt-117" target="-hR4shmU22gH0cobKzlt-123" edge="1">
          <mxGeometry relative="1" as="geometry">
            <Array as="points">
              <mxPoint x="88.5" y="-230" />
              <mxPoint x="88.5" y="-307" />
            </Array>
          </mxGeometry>
        </mxCell>
        <mxCell id="lHE6Wv-7FE4Djr_MWDjM-66" style="edgeStyle=orthogonalEdgeStyle;rounded=0;orthogonalLoop=1;jettySize=auto;html=1;endArrow=open;endFill=0;" parent="1" source="-hR4shmU22gH0cobKzlt-117" target="-hR4shmU22gH0cobKzlt-129" edge="1">
          <mxGeometry relative="1" as="geometry">
            <Array as="points">
              <mxPoint x="88.5" y="-210" />
              <mxPoint x="88.5" y="-171" />
            </Array>
          </mxGeometry>
        </mxCell>
        <mxCell id="-hR4shmU22gH0cobKzlt-117" value="Sing in View" style="swimlane;fontStyle=1;align=center;verticalAlign=top;childLayout=stackLayout;horizontal=1;startSize=26;horizontalStack=0;resizeParent=1;resizeParentMax=0;resizeLast=0;collapsible=1;marginBottom=0;" parent="1" vertex="1">
          <mxGeometry x="121" y="-260" width="203" height="86" as="geometry" />
        </mxCell>
        <mxCell id="-hR4shmU22gH0cobKzlt-118" value="- SignInPanel : Sign In Panel" style="text;strokeColor=none;fillColor=none;align=left;verticalAlign=top;spacingLeft=4;spacingRight=4;overflow=hidden;rotatable=0;points=[[0,0.5],[1,0.5]];portConstraint=eastwest;" parent="-hR4shmU22gH0cobKzlt-117" vertex="1">
          <mxGeometry y="26" width="203" height="26" as="geometry" />
        </mxCell>
        <mxCell id="-hR4shmU22gH0cobKzlt-119" value="- SignUpPanel : Sign Up Panel" style="text;strokeColor=none;fillColor=none;align=left;verticalAlign=top;spacingLeft=4;spacingRight=4;overflow=hidden;rotatable=0;points=[[0,0.5],[1,0.5]];portConstraint=eastwest;" parent="-hR4shmU22gH0cobKzlt-117" vertex="1">
          <mxGeometry y="52" width="203" height="26" as="geometry" />
        </mxCell>
        <mxCell id="-hR4shmU22gH0cobKzlt-121" value="" style="line;strokeWidth=1;fillColor=none;align=left;verticalAlign=middle;spacingTop=-1;spacingLeft=3;spacingRight=3;rotatable=0;labelPosition=right;points=[];portConstraint=eastwest;" parent="-hR4shmU22gH0cobKzlt-117" vertex="1">
          <mxGeometry y="78" width="203" height="8" as="geometry" />
        </mxCell>
        <mxCell id="-hR4shmU22gH0cobKzlt-123" value="Sign in Panel" style="swimlane;fontStyle=1;align=center;verticalAlign=top;childLayout=stackLayout;horizontal=1;startSize=26;horizontalStack=0;resizeParent=1;resizeParentMax=0;resizeLast=0;collapsible=1;marginBottom=0;" parent="1" vertex="1">
          <mxGeometry x="-133" y="-360" width="189" height="106" as="geometry" />
        </mxCell>
        <mxCell id="-hR4shmU22gH0cobKzlt-124" value="- IdText : TextField" style="text;strokeColor=none;fillColor=none;align=left;verticalAlign=top;spacingLeft=4;spacingRight=4;overflow=hidden;rotatable=0;points=[[0,0.5],[1,0.5]];portConstraint=eastwest;" parent="-hR4shmU22gH0cobKzlt-123" vertex="1">
          <mxGeometry y="26" width="189" height="24" as="geometry" />
        </mxCell>
        <mxCell id="-hR4shmU22gH0cobKzlt-125" value="- PwText : TextField" style="text;strokeColor=none;fillColor=none;align=left;verticalAlign=top;spacingLeft=4;spacingRight=4;overflow=hidden;rotatable=0;points=[[0,0.5],[1,0.5]];portConstraint=eastwest;" parent="-hR4shmU22gH0cobKzlt-123" vertex="1">
          <mxGeometry y="50" width="189" height="24" as="geometry" />
        </mxCell>
        <mxCell id="-hR4shmU22gH0cobKzlt-126" value="- SaveBtn : Button" style="text;strokeColor=none;fillColor=none;align=left;verticalAlign=top;spacingLeft=4;spacingRight=4;overflow=hidden;rotatable=0;points=[[0,0.5],[1,0.5]];portConstraint=eastwest;" parent="-hR4shmU22gH0cobKzlt-123" vertex="1">
          <mxGeometry y="74" width="189" height="24" as="geometry" />
        </mxCell>
        <mxCell id="-hR4shmU22gH0cobKzlt-127" value="" style="line;strokeWidth=1;fillColor=none;align=left;verticalAlign=middle;spacingTop=-1;spacingLeft=3;spacingRight=3;rotatable=0;labelPosition=right;points=[];portConstraint=eastwest;" parent="-hR4shmU22gH0cobKzlt-123" vertex="1">
          <mxGeometry y="98" width="189" height="8" as="geometry" />
        </mxCell>
        <mxCell id="-hR4shmU22gH0cobKzlt-129" value="Sign up Panel" style="swimlane;fontStyle=1;align=center;verticalAlign=top;childLayout=stackLayout;horizontal=1;startSize=26;horizontalStack=0;resizeParent=1;resizeParentMax=0;resizeLast=0;collapsible=1;marginBottom=0;" parent="1" vertex="1">
          <mxGeometry x="-133" y="-236" width="189" height="130" as="geometry" />
        </mxCell>
        <mxCell id="lHE6Wv-7FE4Djr_MWDjM-4" value="- IdText : TextField" style="text;strokeColor=none;fillColor=none;align=left;verticalAlign=top;spacingLeft=4;spacingRight=4;overflow=hidden;rotatable=0;points=[[0,0.5],[1,0.5]];portConstraint=eastwest;" parent="-hR4shmU22gH0cobKzlt-129" vertex="1">
          <mxGeometry y="26" width="189" height="24" as="geometry" />
        </mxCell>
        <mxCell id="lHE6Wv-7FE4Djr_MWDjM-5" value="- PwText : TextField" style="text;strokeColor=none;fillColor=none;align=left;verticalAlign=top;spacingLeft=4;spacingRight=4;overflow=hidden;rotatable=0;points=[[0,0.5],[1,0.5]];portConstraint=eastwest;" parent="-hR4shmU22gH0cobKzlt-129" vertex="1">
          <mxGeometry y="50" width="189" height="24" as="geometry" />
        </mxCell>
        <mxCell id="-hR4shmU22gH0cobKzlt-130" value="- userNameText : TextField" style="text;strokeColor=none;fillColor=none;align=left;verticalAlign=top;spacingLeft=4;spacingRight=4;overflow=hidden;rotatable=0;points=[[0,0.5],[1,0.5]];portConstraint=eastwest;" parent="-hR4shmU22gH0cobKzlt-129" vertex="1">
          <mxGeometry y="74" width="189" height="24" as="geometry" />
        </mxCell>
        <mxCell id="-hR4shmU22gH0cobKzlt-132" value="- SaveBtn : Button" style="text;strokeColor=none;fillColor=none;align=left;verticalAlign=top;spacingLeft=4;spacingRight=4;overflow=hidden;rotatable=0;points=[[0,0.5],[1,0.5]];portConstraint=eastwest;" parent="-hR4shmU22gH0cobKzlt-129" vertex="1">
          <mxGeometry y="98" width="189" height="24" as="geometry" />
        </mxCell>
        <mxCell id="-hR4shmU22gH0cobKzlt-133" value="" style="line;strokeWidth=1;fillColor=none;align=left;verticalAlign=middle;spacingTop=-1;spacingLeft=3;spacingRight=3;rotatable=0;labelPosition=right;points=[];portConstraint=eastwest;" parent="-hR4shmU22gH0cobKzlt-129" vertex="1">
          <mxGeometry y="122" width="189" height="8" as="geometry" />
        </mxCell>
        <mxCell id="lHE6Wv-7FE4Djr_MWDjM-45" style="edgeStyle=orthogonalEdgeStyle;rounded=0;orthogonalLoop=1;jettySize=auto;html=1;dashed=1;endArrow=none;endFill=0;startArrow=open;startFill=0;" parent="1" source="-hR4shmU22gH0cobKzlt-146" target="-hR4shmU22gH0cobKzlt-173" edge="1">
          <mxGeometry relative="1" as="geometry">
            <Array as="points">
              <mxPoint x="90" y="10" />
              <mxPoint x="90" y="10" />
            </Array>
          </mxGeometry>
        </mxCell>
        <mxCell id="-hR4shmU22gH0cobKzlt-146" value="Customization View" style="swimlane;fontStyle=1;align=center;verticalAlign=top;childLayout=stackLayout;horizontal=1;startSize=26;horizontalStack=0;resizeParent=1;resizeParentMax=0;resizeLast=0;collapsible=1;marginBottom=0;" parent="1" vertex="1">
          <mxGeometry x="-310" y="-60" width="200" height="190" as="geometry" />
        </mxCell>
        <mxCell id="-hR4shmU22gH0cobKzlt-147" value="- hairStyleListUI : ComboBox" style="text;strokeColor=none;fillColor=none;align=left;verticalAlign=top;spacingLeft=4;spacingRight=4;overflow=hidden;rotatable=0;points=[[0,0.5],[1,0.5]];portConstraint=eastwest;" parent="-hR4shmU22gH0cobKzlt-146" vertex="1">
          <mxGeometry y="26" width="200" height="26" as="geometry" />
        </mxCell>
        <mxCell id="-hR4shmU22gH0cobKzlt-323" value="- hairColorListUI : ComboBox" style="text;strokeColor=none;fillColor=none;align=left;verticalAlign=top;spacingLeft=4;spacingRight=4;overflow=hidden;rotatable=0;points=[[0,0.5],[1,0.5]];portConstraint=eastwest;" parent="-hR4shmU22gH0cobKzlt-146" vertex="1">
          <mxGeometry y="52" width="200" height="26" as="geometry" />
        </mxCell>
        <mxCell id="-hR4shmU22gH0cobKzlt-324" value="- eyesColorListUI : ComboBox" style="text;strokeColor=none;fillColor=none;align=left;verticalAlign=top;spacingLeft=4;spacingRight=4;overflow=hidden;rotatable=0;points=[[0,0.5],[1,0.5]];portConstraint=eastwest;" parent="-hR4shmU22gH0cobKzlt-146" vertex="1">
          <mxGeometry y="78" width="200" height="26" as="geometry" />
        </mxCell>
        <mxCell id="-hR4shmU22gH0cobKzlt-325" value="- skinColorListUI : ComboBox" style="text;strokeColor=none;fillColor=none;align=left;verticalAlign=top;spacingLeft=4;spacingRight=4;overflow=hidden;rotatable=0;points=[[0,0.5],[1,0.5]];portConstraint=eastwest;" parent="-hR4shmU22gH0cobKzlt-146" vertex="1">
          <mxGeometry y="104" width="200" height="26" as="geometry" />
        </mxCell>
        <mxCell id="-hR4shmU22gH0cobKzlt-326" value="- characterImage : Image" style="text;strokeColor=none;fillColor=none;align=left;verticalAlign=top;spacingLeft=4;spacingRight=4;overflow=hidden;rotatable=0;points=[[0,0.5],[1,0.5]];portConstraint=eastwest;" parent="-hR4shmU22gH0cobKzlt-146" vertex="1">
          <mxGeometry y="130" width="200" height="26" as="geometry" />
        </mxCell>
        <mxCell id="-hR4shmU22gH0cobKzlt-327" value="- saveUI : Button" style="text;strokeColor=none;fillColor=none;align=left;verticalAlign=top;spacingLeft=4;spacingRight=4;overflow=hidden;rotatable=0;points=[[0,0.5],[1,0.5]];portConstraint=eastwest;" parent="-hR4shmU22gH0cobKzlt-146" vertex="1">
          <mxGeometry y="156" width="200" height="26" as="geometry" />
        </mxCell>
        <mxCell id="-hR4shmU22gH0cobKzlt-150" value="" style="line;strokeWidth=1;fillColor=none;align=left;verticalAlign=middle;spacingTop=-1;spacingLeft=3;spacingRight=3;rotatable=0;labelPosition=right;points=[];portConstraint=eastwest;" parent="-hR4shmU22gH0cobKzlt-146" vertex="1">
          <mxGeometry y="182" width="200" height="8" as="geometry" />
        </mxCell>
        <mxCell id="lHE6Wv-7FE4Djr_MWDjM-36" style="edgeStyle=orthogonalEdgeStyle;rounded=0;orthogonalLoop=1;jettySize=auto;html=1;dashed=1;endArrow=open;endFill=0;" parent="1" source="-hR4shmU22gH0cobKzlt-156" target="Hz_aNHwt8BgAc0QITuWz-55" edge="1">
          <mxGeometry relative="1" as="geometry">
            <Array as="points">
              <mxPoint x="740" y="1039" />
              <mxPoint x="740" y="270" />
            </Array>
          </mxGeometry>
        </mxCell>
        <mxCell id="lHE6Wv-7FE4Djr_MWDjM-49" style="edgeStyle=orthogonalEdgeStyle;rounded=0;orthogonalLoop=1;jettySize=auto;html=1;dashed=1;endArrow=open;endFill=0;" parent="1" source="-hR4shmU22gH0cobKzlt-156" target="-hR4shmU22gH0cobKzlt-183" edge="1">
          <mxGeometry relative="1" as="geometry">
            <Array as="points">
              <mxPoint x="500" y="840" />
              <mxPoint x="500" y="840" />
            </Array>
          </mxGeometry>
        </mxCell>
        <mxCell id="-hR4shmU22gH0cobKzlt-156" value="Meeting Room Controller" style="swimlane;fontStyle=1;align=center;verticalAlign=top;childLayout=stackLayout;horizontal=1;startSize=26;horizontalStack=0;resizeParent=1;resizeParentMax=0;resizeLast=0;collapsible=1;marginBottom=0;" parent="1" vertex="1">
          <mxGeometry x="370" y="840" width="260" height="398" as="geometry" />
        </mxCell>
        <mxCell id="-hR4shmU22gH0cobKzlt-157" value="- meetingRoomView : Meeitng Room View" style="text;strokeColor=none;fillColor=none;align=left;verticalAlign=top;spacingLeft=4;spacingRight=4;overflow=hidden;rotatable=0;points=[[0,0.5],[1,0.5]];portConstraint=eastwest;" parent="-hR4shmU22gH0cobKzlt-156" vertex="1">
          <mxGeometry y="26" width="260" height="26" as="geometry" />
        </mxCell>
        <mxCell id="-hR4shmU22gH0cobKzlt-158" value="- meetingRoomData : Meeting Room Model" style="text;strokeColor=none;fillColor=none;align=left;verticalAlign=top;spacingLeft=4;spacingRight=4;overflow=hidden;rotatable=0;points=[[0,0.5],[1,0.5]];portConstraint=eastwest;" parent="-hR4shmU22gH0cobKzlt-156" vertex="1">
          <mxGeometry y="52" width="260" height="26" as="geometry" />
        </mxCell>
        <mxCell id="-hR4shmU22gH0cobKzlt-238" value="- chatPanel : Chatting Panel" style="text;strokeColor=none;fillColor=none;align=left;verticalAlign=top;spacingLeft=4;spacingRight=4;overflow=hidden;rotatable=0;points=[[0,0.5],[1,0.5]];portConstraint=eastwest;" parent="-hR4shmU22gH0cobKzlt-156" vertex="1">
          <mxGeometry y="78" width="260" height="26" as="geometry" />
        </mxCell>
        <mxCell id="-hR4shmU22gH0cobKzlt-240" value="- participantsData : Participants Data" style="text;strokeColor=none;fillColor=none;align=left;verticalAlign=top;spacingLeft=4;spacingRight=4;overflow=hidden;rotatable=0;points=[[0,0.5],[1,0.5]];portConstraint=eastwest;" parent="-hR4shmU22gH0cobKzlt-156" vertex="1">
          <mxGeometry y="104" width="260" height="26" as="geometry" />
        </mxCell>
        <mxCell id="-hR4shmU22gH0cobKzlt-239" value="- chatData : Chatting Log Data" style="text;strokeColor=none;fillColor=none;align=left;verticalAlign=top;spacingLeft=4;spacingRight=4;overflow=hidden;rotatable=0;points=[[0,0.5],[1,0.5]];portConstraint=eastwest;" parent="-hR4shmU22gH0cobKzlt-156" vertex="1">
          <mxGeometry y="130" width="260" height="26" as="geometry" />
        </mxCell>
        <mxCell id="-hR4shmU22gH0cobKzlt-159" value="" style="line;strokeWidth=1;fillColor=none;align=left;verticalAlign=middle;spacingTop=-1;spacingLeft=3;spacingRight=3;rotatable=0;labelPosition=right;points=[];portConstraint=eastwest;" parent="-hR4shmU22gH0cobKzlt-156" vertex="1">
          <mxGeometry y="156" width="260" height="8" as="geometry" />
        </mxCell>
        <mxCell id="-hR4shmU22gH0cobKzlt-160" value="+ buttonClicked(event : buttonClick)" style="text;strokeColor=none;fillColor=none;align=left;verticalAlign=top;spacingLeft=4;spacingRight=4;overflow=hidden;rotatable=0;points=[[0,0.5],[1,0.5]];portConstraint=eastwest;" parent="-hR4shmU22gH0cobKzlt-156" vertex="1">
          <mxGeometry y="164" width="260" height="26" as="geometry" />
        </mxCell>
        <mxCell id="-hR4shmU22gH0cobKzlt-241" value="+ micInputed(event : MicInputEvent)" style="text;strokeColor=none;fillColor=none;align=left;verticalAlign=top;spacingLeft=4;spacingRight=4;overflow=hidden;rotatable=0;points=[[0,0.5],[1,0.5]];portConstraint=eastwest;" parent="-hR4shmU22gH0cobKzlt-156" vertex="1">
          <mxGeometry y="190" width="260" height="26" as="geometry" />
        </mxCell>
        <mxCell id="-hR4shmU22gH0cobKzlt-242" value="+ sendChar(String)" style="text;strokeColor=none;fillColor=none;align=left;verticalAlign=top;spacingLeft=4;spacingRight=4;overflow=hidden;rotatable=0;points=[[0,0.5],[1,0.5]];portConstraint=eastwest;" parent="-hR4shmU22gH0cobKzlt-156" vertex="1">
          <mxGeometry y="216" width="260" height="26" as="geometry" />
        </mxCell>
        <mxCell id="-hR4shmU22gH0cobKzlt-243" value="+ compositionUpdate()" style="text;strokeColor=none;fillColor=none;align=left;verticalAlign=top;spacingLeft=4;spacingRight=4;overflow=hidden;rotatable=0;points=[[0,0.5],[1,0.5]];portConstraint=eastwest;" parent="-hR4shmU22gH0cobKzlt-156" vertex="1">
          <mxGeometry y="242" width="260" height="26" as="geometry" />
        </mxCell>
        <mxCell id="-hR4shmU22gH0cobKzlt-244" value="+ create() : Meeting Room" style="text;strokeColor=none;fillColor=none;align=left;verticalAlign=top;spacingLeft=4;spacingRight=4;overflow=hidden;rotatable=0;points=[[0,0.5],[1,0.5]];portConstraint=eastwest;" parent="-hR4shmU22gH0cobKzlt-156" vertex="1">
          <mxGeometry y="268" width="260" height="26" as="geometry" />
        </mxCell>
        <mxCell id="-hR4shmU22gH0cobKzlt-245" value="+ leave() : Meeting Room" style="text;strokeColor=none;fillColor=none;align=left;verticalAlign=top;spacingLeft=4;spacingRight=4;overflow=hidden;rotatable=0;points=[[0,0.5],[1,0.5]];portConstraint=eastwest;" parent="-hR4shmU22gH0cobKzlt-156" vertex="1">
          <mxGeometry y="294" width="260" height="26" as="geometry" />
        </mxCell>
        <mxCell id="-hR4shmU22gH0cobKzlt-246" value="+ Join(userId)" style="text;strokeColor=none;fillColor=none;align=left;verticalAlign=top;spacingLeft=4;spacingRight=4;overflow=hidden;rotatable=0;points=[[0,0.5],[1,0.5]];portConstraint=eastwest;" parent="-hR4shmU22gH0cobKzlt-156" vertex="1">
          <mxGeometry y="320" width="260" height="26" as="geometry" />
        </mxCell>
        <mxCell id="-hR4shmU22gH0cobKzlt-247" value="+ changeView()" style="text;strokeColor=none;fillColor=none;align=left;verticalAlign=top;spacingLeft=4;spacingRight=4;overflow=hidden;rotatable=0;points=[[0,0.5],[1,0.5]];portConstraint=eastwest;" parent="-hR4shmU22gH0cobKzlt-156" vertex="1">
          <mxGeometry y="346" width="260" height="26" as="geometry" />
        </mxCell>
        <mxCell id="-hR4shmU22gH0cobKzlt-248" value="+ createRoomId() : roomId" style="text;strokeColor=none;fillColor=none;align=left;verticalAlign=top;spacingLeft=4;spacingRight=4;overflow=hidden;rotatable=0;points=[[0,0.5],[1,0.5]];portConstraint=eastwest;" parent="-hR4shmU22gH0cobKzlt-156" vertex="1">
          <mxGeometry y="372" width="260" height="26" as="geometry" />
        </mxCell>
        <mxCell id="lHE6Wv-7FE4Djr_MWDjM-37" style="edgeStyle=orthogonalEdgeStyle;rounded=0;orthogonalLoop=1;jettySize=auto;html=1;dashed=1;endArrow=open;endFill=0;" parent="1" source="-hR4shmU22gH0cobKzlt-168" target="Hz_aNHwt8BgAc0QITuWz-55" edge="1">
          <mxGeometry relative="1" as="geometry">
            <Array as="points">
              <mxPoint x="830" y="1435" />
            </Array>
          </mxGeometry>
        </mxCell>
        <mxCell id="lHE6Wv-7FE4Djr_MWDjM-53" style="edgeStyle=orthogonalEdgeStyle;rounded=0;orthogonalLoop=1;jettySize=auto;html=1;dashed=1;endArrow=open;endFill=0;" parent="1" source="-hR4shmU22gH0cobKzlt-168" target="-hR4shmU22gH0cobKzlt-188" edge="1">
          <mxGeometry relative="1" as="geometry">
            <mxPoint x="811" y="-240" as="targetPoint" />
            <Array as="points">
              <mxPoint x="421" y="1443" />
              <mxPoint x="421" y="1443" />
            </Array>
          </mxGeometry>
        </mxCell>
        <mxCell id="-hR4shmU22gH0cobKzlt-168" value="Character Controller" style="swimlane;fontStyle=1;align=center;verticalAlign=top;childLayout=stackLayout;horizontal=1;startSize=26;horizontalStack=0;resizeParent=1;resizeParentMax=0;resizeLast=0;collapsible=1;marginBottom=0;" parent="1" vertex="1">
          <mxGeometry x="441" y="1380" width="310" height="150" as="geometry" />
        </mxCell>
        <mxCell id="-hR4shmU22gH0cobKzlt-169" value="- customData : Custom Data" style="text;strokeColor=none;fillColor=none;align=left;verticalAlign=top;spacingLeft=4;spacingRight=4;overflow=hidden;rotatable=0;points=[[0,0.5],[1,0.5]];portConstraint=eastwest;" parent="-hR4shmU22gH0cobKzlt-168" vertex="1">
          <mxGeometry y="26" width="310" height="26" as="geometry" />
        </mxCell>
        <mxCell id="-hR4shmU22gH0cobKzlt-171" value="" style="line;strokeWidth=1;fillColor=none;align=left;verticalAlign=middle;spacingTop=-1;spacingLeft=3;spacingRight=3;rotatable=0;labelPosition=right;points=[];portConstraint=eastwest;" parent="-hR4shmU22gH0cobKzlt-168" vertex="1">
          <mxGeometry y="52" width="310" height="8" as="geometry" />
        </mxCell>
        <mxCell id="-hR4shmU22gH0cobKzlt-172" value="+ attachMotion()" style="text;strokeColor=none;fillColor=none;align=left;verticalAlign=top;spacingLeft=4;spacingRight=4;overflow=hidden;rotatable=0;points=[[0,0.5],[1,0.5]];portConstraint=eastwest;" parent="-hR4shmU22gH0cobKzlt-168" vertex="1">
          <mxGeometry y="60" width="310" height="26" as="geometry" />
        </mxCell>
        <mxCell id="-hR4shmU22gH0cobKzlt-290" value="+ attachGesture(Gesture : List)" style="text;strokeColor=none;fillColor=none;align=left;verticalAlign=top;spacingLeft=4;spacingRight=4;overflow=hidden;rotatable=0;points=[[0,0.5],[1,0.5]];portConstraint=eastwest;" parent="-hR4shmU22gH0cobKzlt-168" vertex="1">
          <mxGeometry y="86" width="310" height="26" as="geometry" />
        </mxCell>
        <mxCell id="-hR4shmU22gH0cobKzlt-291" value="+ takeCustomData() : hairStyle, hairColor, &#xa;                                    eyesColor, skinColor" style="text;strokeColor=none;fillColor=none;align=left;verticalAlign=top;spacingLeft=4;spacingRight=4;overflow=hidden;rotatable=0;points=[[0,0.5],[1,0.5]];portConstraint=eastwest;" parent="-hR4shmU22gH0cobKzlt-168" vertex="1">
          <mxGeometry y="112" width="310" height="38" as="geometry" />
        </mxCell>
        <mxCell id="lHE6Wv-7FE4Djr_MWDjM-39" style="edgeStyle=orthogonalEdgeStyle;rounded=0;orthogonalLoop=1;jettySize=auto;html=1;dashed=1;endArrow=open;endFill=0;" parent="1" source="-hR4shmU22gH0cobKzlt-173" target="Hz_aNHwt8BgAc0QITuWz-55" edge="1">
          <mxGeometry relative="1" as="geometry">
            <Array as="points">
              <mxPoint x="690" y="70" />
              <mxPoint x="690" y="70" />
            </Array>
          </mxGeometry>
        </mxCell>
        <mxCell id="-hR4shmU22gH0cobKzlt-173" value="Customizing Controller" style="swimlane;fontStyle=1;align=center;verticalAlign=top;childLayout=stackLayout;horizontal=1;startSize=26;horizontalStack=0;resizeParent=1;resizeParentMax=0;resizeLast=0;collapsible=1;marginBottom=0;" parent="1" vertex="1">
          <mxGeometry x="305" y="-60" width="350" height="190" as="geometry" />
        </mxCell>
        <mxCell id="-hR4shmU22gH0cobKzlt-174" value="- customizationView : Customization View" style="text;strokeColor=none;fillColor=none;align=left;verticalAlign=top;spacingLeft=4;spacingRight=4;overflow=hidden;rotatable=0;points=[[0,0.5],[1,0.5]];portConstraint=eastwest;" parent="-hR4shmU22gH0cobKzlt-173" vertex="1">
          <mxGeometry y="26" width="350" height="26" as="geometry" />
        </mxCell>
        <mxCell id="-hR4shmU22gH0cobKzlt-175" value="- customData : Custom Data" style="text;strokeColor=none;fillColor=none;align=left;verticalAlign=top;spacingLeft=4;spacingRight=4;overflow=hidden;rotatable=0;points=[[0,0.5],[1,0.5]];portConstraint=eastwest;" parent="-hR4shmU22gH0cobKzlt-173" vertex="1">
          <mxGeometry y="52" width="350" height="26" as="geometry" />
        </mxCell>
        <mxCell id="-hR4shmU22gH0cobKzlt-292" value="- optionList : OptionList" style="text;strokeColor=none;fillColor=none;align=left;verticalAlign=top;spacingLeft=4;spacingRight=4;overflow=hidden;rotatable=0;points=[[0,0.5],[1,0.5]];portConstraint=eastwest;" parent="-hR4shmU22gH0cobKzlt-173" vertex="1">
          <mxGeometry y="78" width="350" height="26" as="geometry" />
        </mxCell>
        <mxCell id="-hR4shmU22gH0cobKzlt-176" value="" style="line;strokeWidth=1;fillColor=none;align=left;verticalAlign=middle;spacingTop=-1;spacingLeft=3;spacingRight=3;rotatable=0;labelPosition=right;points=[];portConstraint=eastwest;" parent="-hR4shmU22gH0cobKzlt-173" vertex="1">
          <mxGeometry y="104" width="350" height="8" as="geometry" />
        </mxCell>
        <mxCell id="-hR4shmU22gH0cobKzlt-177" value="+ optionChanged(optionData)" style="text;strokeColor=none;fillColor=none;align=left;verticalAlign=top;spacingLeft=4;spacingRight=4;overflow=hidden;rotatable=0;points=[[0,0.5],[1,0.5]];portConstraint=eastwest;" parent="-hR4shmU22gH0cobKzlt-173" vertex="1">
          <mxGeometry y="112" width="350" height="26" as="geometry" />
        </mxCell>
        <mxCell id="-hR4shmU22gH0cobKzlt-293" value="+ saveOption(customOptionList)" style="text;strokeColor=none;fillColor=none;align=left;verticalAlign=top;spacingLeft=4;spacingRight=4;overflow=hidden;rotatable=0;points=[[0,0.5],[1,0.5]];portConstraint=eastwest;" parent="-hR4shmU22gH0cobKzlt-173" vertex="1">
          <mxGeometry y="138" width="350" height="26" as="geometry" />
        </mxCell>
        <mxCell id="-hR4shmU22gH0cobKzlt-294" value="+ changeView()" style="text;strokeColor=none;fillColor=none;align=left;verticalAlign=top;spacingLeft=4;spacingRight=4;overflow=hidden;rotatable=0;points=[[0,0.5],[1,0.5]];portConstraint=eastwest;" parent="-hR4shmU22gH0cobKzlt-173" vertex="1">
          <mxGeometry y="164" width="350" height="26" as="geometry" />
        </mxCell>
        <mxCell id="lHE6Wv-7FE4Djr_MWDjM-52" style="edgeStyle=orthogonalEdgeStyle;rounded=0;orthogonalLoop=1;jettySize=auto;html=1;dashed=1;endArrow=open;endFill=0;" parent="1" source="-hR4shmU22gH0cobKzlt-178" target="-hR4shmU22gH0cobKzlt-168" edge="1">
          <mxGeometry relative="1" as="geometry">
            <Array as="points">
              <mxPoint x="590" y="1570" />
              <mxPoint x="590" y="1570" />
            </Array>
          </mxGeometry>
        </mxCell>
        <mxCell id="-hR4shmU22gH0cobKzlt-178" value="CamController" style="swimlane;fontStyle=1;align=center;verticalAlign=top;childLayout=stackLayout;horizontal=1;startSize=26;horizontalStack=0;resizeParent=1;resizeParentMax=0;resizeLast=0;collapsible=1;marginBottom=0;" parent="1" vertex="1">
          <mxGeometry x="480" y="1610" width="220" height="60" as="geometry" />
        </mxCell>
        <mxCell id="-hR4shmU22gH0cobKzlt-181" value="" style="line;strokeWidth=1;fillColor=none;align=left;verticalAlign=middle;spacingTop=-1;spacingLeft=3;spacingRight=3;rotatable=0;labelPosition=right;points=[];portConstraint=eastwest;" parent="-hR4shmU22gH0cobKzlt-178" vertex="1">
          <mxGeometry y="26" width="220" height="8" as="geometry" />
        </mxCell>
        <mxCell id="-hR4shmU22gH0cobKzlt-182" value="+ faceAnalyze() : analyzed face" style="text;strokeColor=none;fillColor=none;align=left;verticalAlign=top;spacingLeft=4;spacingRight=4;overflow=hidden;rotatable=0;points=[[0,0.5],[1,0.5]];portConstraint=eastwest;" parent="-hR4shmU22gH0cobKzlt-178" vertex="1">
          <mxGeometry y="34" width="220" height="26" as="geometry" />
        </mxCell>
        <mxCell id="Lg5VZ4tljGDv4giq6nzH-7" style="edgeStyle=orthogonalEdgeStyle;rounded=0;orthogonalLoop=1;jettySize=auto;html=1;dashed=1;endArrow=open;endFill=0;" parent="1" source="-hR4shmU22gH0cobKzlt-183" target="Lg5VZ4tljGDv4giq6nzH-5" edge="1">
          <mxGeometry relative="1" as="geometry" />
        </mxCell>
        <mxCell id="-hR4shmU22gH0cobKzlt-183" value="Sound Controller" style="swimlane;fontStyle=1;align=center;verticalAlign=top;childLayout=stackLayout;horizontal=1;startSize=26;horizontalStack=0;resizeParent=1;resizeParentMax=0;resizeLast=0;collapsible=1;marginBottom=0;" parent="1" vertex="1">
          <mxGeometry x="390" y="687" width="220" height="86" as="geometry" />
        </mxCell>
        <mxCell id="-hR4shmU22gH0cobKzlt-186" value="" style="line;strokeWidth=1;fillColor=none;align=left;verticalAlign=middle;spacingTop=-1;spacingLeft=3;spacingRight=3;rotatable=0;labelPosition=right;points=[];portConstraint=eastwest;" parent="-hR4shmU22gH0cobKzlt-183" vertex="1">
          <mxGeometry y="26" width="220" height="8" as="geometry" />
        </mxCell>
        <mxCell id="-hR4shmU22gH0cobKzlt-187" value="+ getStereo(sound) : Stereo Sound" style="text;strokeColor=none;fillColor=none;align=left;verticalAlign=top;spacingLeft=4;spacingRight=4;overflow=hidden;rotatable=0;points=[[0,0.5],[1,0.5]];portConstraint=eastwest;" parent="-hR4shmU22gH0cobKzlt-183" vertex="1">
          <mxGeometry y="34" width="220" height="26" as="geometry" />
        </mxCell>
        <mxCell id="-hR4shmU22gH0cobKzlt-295" value="+ printStereo(Stereo Sound)" style="text;strokeColor=none;fillColor=none;align=left;verticalAlign=top;spacingLeft=4;spacingRight=4;overflow=hidden;rotatable=0;points=[[0,0.5],[1,0.5]];portConstraint=eastwest;" parent="-hR4shmU22gH0cobKzlt-183" vertex="1">
          <mxGeometry y="60" width="220" height="26" as="geometry" />
        </mxCell>
        <mxCell id="Lg5VZ4tljGDv4giq6nzH-4" style="edgeStyle=orthogonalEdgeStyle;rounded=0;orthogonalLoop=1;jettySize=auto;html=1;dashed=1;endArrow=open;endFill=0;" parent="1" source="-hR4shmU22gH0cobKzlt-188" target="Lg5VZ4tljGDv4giq6nzH-1" edge="1">
          <mxGeometry relative="1" as="geometry" />
        </mxCell>
        <mxCell id="-hR4shmU22gH0cobKzlt-188" value="Rendering Controller" style="swimlane;fontStyle=1;align=center;verticalAlign=top;childLayout=stackLayout;horizontal=1;startSize=26;horizontalStack=0;resizeParent=1;resizeParentMax=0;resizeLast=0;collapsible=1;marginBottom=0;" parent="1" vertex="1">
          <mxGeometry x="121" y="1400" width="220" height="86" as="geometry" />
        </mxCell>
        <mxCell id="-hR4shmU22gH0cobKzlt-189" value="- characterPanel : character Panel" style="text;strokeColor=none;fillColor=none;align=left;verticalAlign=top;spacingLeft=4;spacingRight=4;overflow=hidden;rotatable=0;points=[[0,0.5],[1,0.5]];portConstraint=eastwest;" parent="-hR4shmU22gH0cobKzlt-188" vertex="1">
          <mxGeometry y="26" width="220" height="26" as="geometry" />
        </mxCell>
        <mxCell id="-hR4shmU22gH0cobKzlt-191" value="" style="line;strokeWidth=1;fillColor=none;align=left;verticalAlign=middle;spacingTop=-1;spacingLeft=3;spacingRight=3;rotatable=0;labelPosition=right;points=[];portConstraint=eastwest;" parent="-hR4shmU22gH0cobKzlt-188" vertex="1">
          <mxGeometry y="52" width="220" height="8" as="geometry" />
        </mxCell>
        <mxCell id="-hR4shmU22gH0cobKzlt-192" value="+ rendering(sceneData) : Video" style="text;strokeColor=none;fillColor=none;align=left;verticalAlign=top;spacingLeft=4;spacingRight=4;overflow=hidden;rotatable=0;points=[[0,0.5],[1,0.5]];portConstraint=eastwest;" parent="-hR4shmU22gH0cobKzlt-188" vertex="1">
          <mxGeometry y="60" width="220" height="26" as="geometry" />
        </mxCell>
        <mxCell id="-hR4shmU22gH0cobKzlt-194" value="Account Controller" style="swimlane;fontStyle=1;align=center;verticalAlign=top;childLayout=stackLayout;horizontal=1;startSize=26;horizontalStack=0;resizeParent=1;resizeParentMax=0;resizeLast=0;collapsible=1;marginBottom=0;" parent="1" vertex="1">
          <mxGeometry x="710" y="-300" width="220" height="190" as="geometry" />
        </mxCell>
        <mxCell id="-hR4shmU22gH0cobKzlt-195" value="- userData : User Data" style="text;strokeColor=none;fillColor=none;align=left;verticalAlign=top;spacingLeft=4;spacingRight=4;overflow=hidden;rotatable=0;points=[[0,0.5],[1,0.5]];portConstraint=eastwest;" parent="-hR4shmU22gH0cobKzlt-194" vertex="1">
          <mxGeometry y="26" width="220" height="26" as="geometry" />
        </mxCell>
        <mxCell id="-hR4shmU22gH0cobKzlt-196" value="- signInView : Sign In View" style="text;strokeColor=none;fillColor=none;align=left;verticalAlign=top;spacingLeft=4;spacingRight=4;overflow=hidden;rotatable=0;points=[[0,0.5],[1,0.5]];portConstraint=eastwest;" parent="-hR4shmU22gH0cobKzlt-194" vertex="1">
          <mxGeometry y="52" width="220" height="26" as="geometry" />
        </mxCell>
        <mxCell id="-hR4shmU22gH0cobKzlt-197" value="" style="line;strokeWidth=1;fillColor=none;align=left;verticalAlign=middle;spacingTop=-1;spacingLeft=3;spacingRight=3;rotatable=0;labelPosition=right;points=[];portConstraint=eastwest;" parent="-hR4shmU22gH0cobKzlt-194" vertex="1">
          <mxGeometry y="78" width="220" height="8" as="geometry" />
        </mxCell>
        <mxCell id="-hR4shmU22gH0cobKzlt-198" value="+ verifyAccount(Id, Pw)" style="text;strokeColor=none;fillColor=none;align=left;verticalAlign=top;spacingLeft=4;spacingRight=4;overflow=hidden;rotatable=0;points=[[0,0.5],[1,0.5]];portConstraint=eastwest;" parent="-hR4shmU22gH0cobKzlt-194" vertex="1">
          <mxGeometry y="86" width="220" height="26" as="geometry" />
        </mxCell>
        <mxCell id="-hR4shmU22gH0cobKzlt-297" value="+ changeAccount()" style="text;strokeColor=none;fillColor=none;align=left;verticalAlign=top;spacingLeft=4;spacingRight=4;overflow=hidden;rotatable=0;points=[[0,0.5],[1,0.5]];portConstraint=eastwest;" parent="-hR4shmU22gH0cobKzlt-194" vertex="1">
          <mxGeometry y="112" width="220" height="26" as="geometry" />
        </mxCell>
        <mxCell id="-hR4shmU22gH0cobKzlt-298" value="+ deleteAccount()" style="text;strokeColor=none;fillColor=none;align=left;verticalAlign=top;spacingLeft=4;spacingRight=4;overflow=hidden;rotatable=0;points=[[0,0.5],[1,0.5]];portConstraint=eastwest;" parent="-hR4shmU22gH0cobKzlt-194" vertex="1">
          <mxGeometry y="138" width="220" height="26" as="geometry" />
        </mxCell>
        <mxCell id="-hR4shmU22gH0cobKzlt-299" value="+ saveAccount()" style="text;strokeColor=none;fillColor=none;align=left;verticalAlign=top;spacingLeft=4;spacingRight=4;overflow=hidden;rotatable=0;points=[[0,0.5],[1,0.5]];portConstraint=eastwest;" parent="-hR4shmU22gH0cobKzlt-194" vertex="1">
          <mxGeometry y="164" width="220" height="26" as="geometry" />
        </mxCell>
        <mxCell id="-hR4shmU22gH0cobKzlt-209" value="Team Model" style="swimlane;fontStyle=1;align=center;verticalAlign=top;childLayout=stackLayout;horizontal=1;startSize=26;horizontalStack=0;resizeParent=1;resizeParentMax=0;resizeLast=0;collapsible=1;marginBottom=0;" parent="1" vertex="1">
          <mxGeometry x="1320" y="-92" width="160" height="52" as="geometry" />
        </mxCell>
        <mxCell id="-hR4shmU22gH0cobKzlt-210" value="- teamID : int" style="text;strokeColor=none;fillColor=none;align=left;verticalAlign=top;spacingLeft=4;spacingRight=4;overflow=hidden;rotatable=0;points=[[0,0.5],[1,0.5]];portConstraint=eastwest;" parent="-hR4shmU22gH0cobKzlt-209" vertex="1">
          <mxGeometry y="26" width="160" height="26" as="geometry" />
        </mxCell>
        <mxCell id="-hR4shmU22gH0cobKzlt-211" style="edgeStyle=orthogonalEdgeStyle;rounded=0;orthogonalLoop=1;jettySize=auto;html=1;endArrow=diamondThin;endFill=1;startSize=6;endSize=6;strokeWidth=1;" parent="1" source="-hR4shmU22gH0cobKzlt-212" target="-hR4shmU22gH0cobKzlt-209" edge="1">
          <mxGeometry relative="1" as="geometry">
            <Array as="points">
              <mxPoint x="1400" y="-120" />
              <mxPoint x="1400" y="-120" />
            </Array>
          </mxGeometry>
        </mxCell>
        <mxCell id="-hR4shmU22gH0cobKzlt-212" value="Team Data" style="swimlane;fontStyle=1;align=center;verticalAlign=top;childLayout=stackLayout;horizontal=1;startSize=26;horizontalStack=0;resizeParent=1;resizeParentMax=0;resizeLast=0;collapsible=1;marginBottom=0;" parent="1" vertex="1">
          <mxGeometry x="1190" y="-360" width="420" height="164" as="geometry" />
        </mxCell>
        <mxCell id="-hR4shmU22gH0cobKzlt-213" value="- teamCreateTime : DateTime" style="text;strokeColor=none;fillColor=none;align=left;verticalAlign=top;spacingLeft=4;spacingRight=4;overflow=hidden;rotatable=0;points=[[0,0.5],[1,0.5]];portConstraint=eastwest;" parent="-hR4shmU22gH0cobKzlt-212" vertex="1">
          <mxGeometry y="26" width="420" height="26" as="geometry" />
        </mxCell>
        <mxCell id="lHE6Wv-7FE4Djr_MWDjM-10" value="- teamName : String" style="text;strokeColor=none;fillColor=none;align=left;verticalAlign=top;spacingLeft=4;spacingRight=4;overflow=hidden;rotatable=0;points=[[0,0.5],[1,0.5]];portConstraint=eastwest;" parent="-hR4shmU22gH0cobKzlt-212" vertex="1">
          <mxGeometry y="52" width="420" height="26" as="geometry" />
        </mxCell>
        <mxCell id="lHE6Wv-7FE4Djr_MWDjM-11" value="- teamDescription : String" style="text;strokeColor=none;fillColor=none;align=left;verticalAlign=top;spacingLeft=4;spacingRight=4;overflow=hidden;rotatable=0;points=[[0,0.5],[1,0.5]];portConstraint=eastwest;" parent="-hR4shmU22gH0cobKzlt-212" vertex="1">
          <mxGeometry y="78" width="420" height="26" as="geometry" />
        </mxCell>
        <mxCell id="-hR4shmU22gH0cobKzlt-214" value="" style="line;strokeWidth=1;fillColor=none;align=left;verticalAlign=middle;spacingTop=-1;spacingLeft=3;spacingRight=3;rotatable=0;labelPosition=right;points=[];portConstraint=eastwest;" parent="-hR4shmU22gH0cobKzlt-212" vertex="1">
          <mxGeometry y="104" width="420" height="8" as="geometry" />
        </mxCell>
        <mxCell id="lHE6Wv-7FE4Djr_MWDjM-103" value="+ getTeamData() : teamID, teamCreateTime, teamName, teamDescription" style="text;strokeColor=none;fillColor=none;align=left;verticalAlign=top;spacingLeft=4;spacingRight=4;overflow=hidden;rotatable=0;points=[[0,0.5],[1,0.5]];portConstraint=eastwest;" parent="-hR4shmU22gH0cobKzlt-212" vertex="1">
          <mxGeometry y="112" width="420" height="26" as="geometry" />
        </mxCell>
        <mxCell id="lHE6Wv-7FE4Djr_MWDjM-104" value="+ setTeamData(teamID, teamCreateTime, teamName, teamDescription)" style="text;strokeColor=none;fillColor=none;align=left;verticalAlign=top;spacingLeft=4;spacingRight=4;overflow=hidden;rotatable=0;points=[[0,0.5],[1,0.5]];portConstraint=eastwest;" parent="-hR4shmU22gH0cobKzlt-212" vertex="1">
          <mxGeometry y="138" width="420" height="26" as="geometry" />
        </mxCell>
        <mxCell id="-hR4shmU22gH0cobKzlt-215" style="edgeStyle=orthogonalEdgeStyle;rounded=0;orthogonalLoop=1;jettySize=auto;html=1;endArrow=diamondThin;endFill=1;startSize=6;endSize=6;strokeWidth=1;" parent="1" source="-hR4shmU22gH0cobKzlt-216" target="-hR4shmU22gH0cobKzlt-209" edge="1">
          <mxGeometry relative="1" as="geometry">
            <Array as="points">
              <mxPoint x="1420" y="10" />
              <mxPoint x="1420" y="10" />
            </Array>
          </mxGeometry>
        </mxCell>
        <mxCell id="-hR4shmU22gH0cobKzlt-216" value="Team member Data" style="swimlane;fontStyle=1;align=center;verticalAlign=top;childLayout=stackLayout;horizontal=1;startSize=26;horizontalStack=0;resizeParent=1;resizeParentMax=0;resizeLast=0;collapsible=1;marginBottom=0;" parent="1" vertex="1">
          <mxGeometry x="1350" y="80" width="326" height="142" as="geometry" />
        </mxCell>
        <mxCell id="-hR4shmU22gH0cobKzlt-217" value="- userID : String" style="text;strokeColor=none;fillColor=none;align=left;verticalAlign=top;spacingLeft=4;spacingRight=4;overflow=hidden;rotatable=0;points=[[0,0.5],[1,0.5]];portConstraint=eastwest;" parent="-hR4shmU22gH0cobKzlt-216" vertex="1">
          <mxGeometry y="26" width="326" height="30" as="geometry" />
        </mxCell>
        <mxCell id="-hR4shmU22gH0cobKzlt-218" value="- m_type : int" style="text;strokeColor=none;fillColor=none;align=left;verticalAlign=top;spacingLeft=4;spacingRight=4;overflow=hidden;rotatable=0;points=[[0,0.5],[1,0.5]];portConstraint=eastwest;" parent="-hR4shmU22gH0cobKzlt-216" vertex="1">
          <mxGeometry y="56" width="326" height="26" as="geometry" />
        </mxCell>
        <mxCell id="-hR4shmU22gH0cobKzlt-220" value="" style="line;strokeWidth=1;fillColor=none;align=left;verticalAlign=middle;spacingTop=-1;spacingLeft=3;spacingRight=3;rotatable=0;labelPosition=right;points=[];portConstraint=eastwest;" parent="-hR4shmU22gH0cobKzlt-216" vertex="1">
          <mxGeometry y="82" width="326" height="8" as="geometry" />
        </mxCell>
        <mxCell id="lHE6Wv-7FE4Djr_MWDjM-105" value="+ getTeamMemberData() : teamID, userID, m_type" style="text;strokeColor=none;fillColor=none;align=left;verticalAlign=top;spacingLeft=4;spacingRight=4;overflow=hidden;rotatable=0;points=[[0,0.5],[1,0.5]];portConstraint=eastwest;" parent="-hR4shmU22gH0cobKzlt-216" vertex="1">
          <mxGeometry y="90" width="326" height="26" as="geometry" />
        </mxCell>
        <mxCell id="lHE6Wv-7FE4Djr_MWDjM-106" value="+ setTeamMemberData(teamID, userID, m_type)" style="text;strokeColor=none;fillColor=none;align=left;verticalAlign=top;spacingLeft=4;spacingRight=4;overflow=hidden;rotatable=0;points=[[0,0.5],[1,0.5]];portConstraint=eastwest;" parent="-hR4shmU22gH0cobKzlt-216" vertex="1">
          <mxGeometry y="116" width="326" height="26" as="geometry" />
        </mxCell>
        <mxCell id="-hR4shmU22gH0cobKzlt-221" value="Chatting Log Data" style="swimlane;fontStyle=1;align=center;verticalAlign=top;childLayout=stackLayout;horizontal=1;startSize=26;horizontalStack=0;resizeParent=1;resizeParentMax=0;resizeLast=0;collapsible=1;marginBottom=0;" parent="1" vertex="1">
          <mxGeometry x="827" y="1500" width="370" height="190" as="geometry" />
        </mxCell>
        <mxCell id="-hR4shmU22gH0cobKzlt-222" value="- chat_idx : int" style="text;strokeColor=none;fillColor=none;align=left;verticalAlign=top;spacingLeft=4;spacingRight=4;overflow=hidden;rotatable=0;points=[[0,0.5],[1,0.5]];portConstraint=eastwest;" parent="-hR4shmU22gH0cobKzlt-221" vertex="1">
          <mxGeometry y="26" width="370" height="26" as="geometry" />
        </mxCell>
        <mxCell id="lHE6Wv-7FE4Djr_MWDjM-7" value="- msg : String" style="text;strokeColor=none;fillColor=none;align=left;verticalAlign=top;spacingLeft=4;spacingRight=4;overflow=hidden;rotatable=0;points=[[0,0.5],[1,0.5]];portConstraint=eastwest;" parent="-hR4shmU22gH0cobKzlt-221" vertex="1">
          <mxGeometry y="52" width="370" height="26" as="geometry" />
        </mxCell>
        <mxCell id="lHE6Wv-7FE4Djr_MWDjM-8" value="- msgTime : DateTime" style="text;strokeColor=none;fillColor=none;align=left;verticalAlign=top;spacingLeft=4;spacingRight=4;overflow=hidden;rotatable=0;points=[[0,0.5],[1,0.5]];portConstraint=eastwest;" parent="-hR4shmU22gH0cobKzlt-221" vertex="1">
          <mxGeometry y="78" width="370" height="26" as="geometry" />
        </mxCell>
        <mxCell id="lHE6Wv-7FE4Djr_MWDjM-9" value="- nickName : String" style="text;strokeColor=none;fillColor=none;align=left;verticalAlign=top;spacingLeft=4;spacingRight=4;overflow=hidden;rotatable=0;points=[[0,0.5],[1,0.5]];portConstraint=eastwest;" parent="-hR4shmU22gH0cobKzlt-221" vertex="1">
          <mxGeometry y="104" width="370" height="26" as="geometry" />
        </mxCell>
        <mxCell id="-hR4shmU22gH0cobKzlt-223" value="" style="line;strokeWidth=1;fillColor=none;align=left;verticalAlign=middle;spacingTop=-1;spacingLeft=3;spacingRight=3;rotatable=0;labelPosition=right;points=[];portConstraint=eastwest;" parent="-hR4shmU22gH0cobKzlt-221" vertex="1">
          <mxGeometry y="130" width="370" height="8" as="geometry" />
        </mxCell>
        <mxCell id="lHE6Wv-7FE4Djr_MWDjM-94" value="+ getChattingLogData() : chat_idx, msg, msgTime, nickName" style="text;strokeColor=none;fillColor=none;align=left;verticalAlign=top;spacingLeft=4;spacingRight=4;overflow=hidden;rotatable=0;points=[[0,0.5],[1,0.5]];portConstraint=eastwest;" parent="-hR4shmU22gH0cobKzlt-221" vertex="1">
          <mxGeometry y="138" width="370" height="26" as="geometry" />
        </mxCell>
        <mxCell id="lHE6Wv-7FE4Djr_MWDjM-95" value="+ setChattingLogData(chat_idx, msg, msgTime, nickName)" style="text;strokeColor=none;fillColor=none;align=left;verticalAlign=top;spacingLeft=4;spacingRight=4;overflow=hidden;rotatable=0;points=[[0,0.5],[1,0.5]];portConstraint=eastwest;" parent="-hR4shmU22gH0cobKzlt-221" vertex="1">
          <mxGeometry y="164" width="370" height="26" as="geometry" />
        </mxCell>
        <mxCell id="-hR4shmU22gH0cobKzlt-224" value="User Data" style="swimlane;fontStyle=1;align=center;verticalAlign=top;childLayout=stackLayout;horizontal=1;startSize=26;horizontalStack=0;resizeParent=1;resizeParentMax=0;resizeLast=0;collapsible=1;marginBottom=0;" parent="1" vertex="1">
          <mxGeometry x="1090" y="610" width="310" height="190" as="geometry" />
        </mxCell>
        <mxCell id="-hR4shmU22gH0cobKzlt-225" value="- userID : String" style="text;strokeColor=none;fillColor=none;align=left;verticalAlign=top;spacingLeft=4;spacingRight=4;overflow=hidden;rotatable=0;points=[[0,0.5],[1,0.5]];portConstraint=eastwest;" parent="-hR4shmU22gH0cobKzlt-224" vertex="1">
          <mxGeometry y="26" width="310" height="26" as="geometry" />
        </mxCell>
        <mxCell id="lHE6Wv-7FE4Djr_MWDjM-12" value="- userType : int" style="text;strokeColor=none;fillColor=none;align=left;verticalAlign=top;spacingLeft=4;spacingRight=4;overflow=hidden;rotatable=0;points=[[0,0.5],[1,0.5]];portConstraint=eastwest;" parent="-hR4shmU22gH0cobKzlt-224" vertex="1">
          <mxGeometry y="52" width="310" height="26" as="geometry" />
        </mxCell>
        <mxCell id="lHE6Wv-7FE4Djr_MWDjM-13" value="- nickName : String" style="text;strokeColor=none;fillColor=none;align=left;verticalAlign=top;spacingLeft=4;spacingRight=4;overflow=hidden;rotatable=0;points=[[0,0.5],[1,0.5]];portConstraint=eastwest;" parent="-hR4shmU22gH0cobKzlt-224" vertex="1">
          <mxGeometry y="78" width="310" height="26" as="geometry" />
        </mxCell>
        <mxCell id="lHE6Wv-7FE4Djr_MWDjM-14" value="- pw : String" style="text;strokeColor=none;fillColor=none;align=left;verticalAlign=top;spacingLeft=4;spacingRight=4;overflow=hidden;rotatable=0;points=[[0,0.5],[1,0.5]];portConstraint=eastwest;" parent="-hR4shmU22gH0cobKzlt-224" vertex="1">
          <mxGeometry y="104" width="310" height="26" as="geometry" />
        </mxCell>
        <mxCell id="-hR4shmU22gH0cobKzlt-226" value="" style="line;strokeWidth=1;fillColor=none;align=left;verticalAlign=middle;spacingTop=-1;spacingLeft=3;spacingRight=3;rotatable=0;labelPosition=right;points=[];portConstraint=eastwest;" parent="-hR4shmU22gH0cobKzlt-224" vertex="1">
          <mxGeometry y="130" width="310" height="8" as="geometry" />
        </mxCell>
        <mxCell id="lHE6Wv-7FE4Djr_MWDjM-96" value="+ getUserData() : userID, userType, nickName, pw" style="text;strokeColor=none;fillColor=none;align=left;verticalAlign=top;spacingLeft=4;spacingRight=4;overflow=hidden;rotatable=0;points=[[0,0.5],[1,0.5]];portConstraint=eastwest;" parent="-hR4shmU22gH0cobKzlt-224" vertex="1">
          <mxGeometry y="138" width="310" height="26" as="geometry" />
        </mxCell>
        <mxCell id="lHE6Wv-7FE4Djr_MWDjM-98" value="+ getUserData(userID, userType, nickName, pw)" style="text;strokeColor=none;fillColor=none;align=left;verticalAlign=top;spacingLeft=4;spacingRight=4;overflow=hidden;rotatable=0;points=[[0,0.5],[1,0.5]];portConstraint=eastwest;" parent="-hR4shmU22gH0cobKzlt-224" vertex="1">
          <mxGeometry y="164" width="310" height="26" as="geometry" />
        </mxCell>
        <mxCell id="-hR4shmU22gH0cobKzlt-227" value="Custom Data" style="swimlane;fontStyle=1;align=center;verticalAlign=top;childLayout=stackLayout;horizontal=1;startSize=26;horizontalStack=0;resizeParent=1;resizeParentMax=0;resizeLast=0;collapsible=1;marginBottom=0;" parent="1" vertex="1">
          <mxGeometry x="930" y="1164" width="380" height="216" as="geometry" />
        </mxCell>
        <mxCell id="-hR4shmU22gH0cobKzlt-228" value="- userId : String" style="text;strokeColor=none;fillColor=none;align=left;verticalAlign=top;spacingLeft=4;spacingRight=4;overflow=hidden;rotatable=0;points=[[0,0.5],[1,0.5]];portConstraint=eastwest;" parent="-hR4shmU22gH0cobKzlt-227" vertex="1">
          <mxGeometry y="26" width="380" height="26" as="geometry" />
        </mxCell>
        <mxCell id="lHE6Wv-7FE4Djr_MWDjM-18" value="- hairStyle : String" style="text;strokeColor=none;fillColor=none;align=left;verticalAlign=top;spacingLeft=4;spacingRight=4;overflow=hidden;rotatable=0;points=[[0,0.5],[1,0.5]];portConstraint=eastwest;" parent="-hR4shmU22gH0cobKzlt-227" vertex="1">
          <mxGeometry y="52" width="380" height="26" as="geometry" />
        </mxCell>
        <mxCell id="lHE6Wv-7FE4Djr_MWDjM-19" value="- hairColor : String" style="text;strokeColor=none;fillColor=none;align=left;verticalAlign=top;spacingLeft=4;spacingRight=4;overflow=hidden;rotatable=0;points=[[0,0.5],[1,0.5]];portConstraint=eastwest;" parent="-hR4shmU22gH0cobKzlt-227" vertex="1">
          <mxGeometry y="78" width="380" height="26" as="geometry" />
        </mxCell>
        <mxCell id="lHE6Wv-7FE4Djr_MWDjM-20" value="- eyesColor : String" style="text;strokeColor=none;fillColor=none;align=left;verticalAlign=top;spacingLeft=4;spacingRight=4;overflow=hidden;rotatable=0;points=[[0,0.5],[1,0.5]];portConstraint=eastwest;" parent="-hR4shmU22gH0cobKzlt-227" vertex="1">
          <mxGeometry y="104" width="380" height="26" as="geometry" />
        </mxCell>
        <mxCell id="lHE6Wv-7FE4Djr_MWDjM-21" value="- skinColor : String" style="text;strokeColor=none;fillColor=none;align=left;verticalAlign=top;spacingLeft=4;spacingRight=4;overflow=hidden;rotatable=0;points=[[0,0.5],[1,0.5]];portConstraint=eastwest;" parent="-hR4shmU22gH0cobKzlt-227" vertex="1">
          <mxGeometry y="130" width="380" height="26" as="geometry" />
        </mxCell>
        <mxCell id="-hR4shmU22gH0cobKzlt-229" value="" style="line;strokeWidth=1;fillColor=none;align=left;verticalAlign=middle;spacingTop=-1;spacingLeft=3;spacingRight=3;rotatable=0;labelPosition=right;points=[];portConstraint=eastwest;" parent="-hR4shmU22gH0cobKzlt-227" vertex="1">
          <mxGeometry y="156" width="380" height="8" as="geometry" />
        </mxCell>
        <mxCell id="lHE6Wv-7FE4Djr_MWDjM-91" value="+ getCustomData() : userId, hairStyle, hairColor, eyesColor, skinColor" style="text;strokeColor=none;fillColor=none;align=left;verticalAlign=top;spacingLeft=4;spacingRight=4;overflow=hidden;rotatable=0;points=[[0,0.5],[1,0.5]];portConstraint=eastwest;" parent="-hR4shmU22gH0cobKzlt-227" vertex="1">
          <mxGeometry y="164" width="380" height="26" as="geometry" />
        </mxCell>
        <mxCell id="lHE6Wv-7FE4Djr_MWDjM-93" value="+ setCustomData(userId, hairStyle, hairColor, eyesColor, skinColor)" style="text;strokeColor=none;fillColor=none;align=left;verticalAlign=top;spacingLeft=4;spacingRight=4;overflow=hidden;rotatable=0;points=[[0,0.5],[1,0.5]];portConstraint=eastwest;" parent="-hR4shmU22gH0cobKzlt-227" vertex="1">
          <mxGeometry y="190" width="380" height="26" as="geometry" />
        </mxCell>
        <mxCell id="-hR4shmU22gH0cobKzlt-230" value="Recording Data" style="swimlane;fontStyle=1;align=center;verticalAlign=top;childLayout=stackLayout;horizontal=1;startSize=26;horizontalStack=0;resizeParent=1;resizeParentMax=0;resizeLast=0;collapsible=1;marginBottom=0;" parent="1" vertex="1">
          <mxGeometry x="1020" y="870" width="350" height="190" as="geometry" />
        </mxCell>
        <mxCell id="-hR4shmU22gH0cobKzlt-231" value="- videoId : int" style="text;strokeColor=none;fillColor=none;align=left;verticalAlign=top;spacingLeft=4;spacingRight=4;overflow=hidden;rotatable=0;points=[[0,0.5],[1,0.5]];portConstraint=eastwest;" parent="-hR4shmU22gH0cobKzlt-230" vertex="1">
          <mxGeometry y="26" width="350" height="26" as="geometry" />
        </mxCell>
        <mxCell id="lHE6Wv-7FE4Djr_MWDjM-15" value="- videoPath : String" style="text;strokeColor=none;fillColor=none;align=left;verticalAlign=top;spacingLeft=4;spacingRight=4;overflow=hidden;rotatable=0;points=[[0,0.5],[1,0.5]];portConstraint=eastwest;" parent="-hR4shmU22gH0cobKzlt-230" vertex="1">
          <mxGeometry y="52" width="350" height="26" as="geometry" />
        </mxCell>
        <mxCell id="lHE6Wv-7FE4Djr_MWDjM-16" value="- recordTime : DataTime" style="text;strokeColor=none;fillColor=none;align=left;verticalAlign=top;spacingLeft=4;spacingRight=4;overflow=hidden;rotatable=0;points=[[0,0.5],[1,0.5]];portConstraint=eastwest;" parent="-hR4shmU22gH0cobKzlt-230" vertex="1">
          <mxGeometry y="78" width="350" height="26" as="geometry" />
        </mxCell>
        <mxCell id="lHE6Wv-7FE4Djr_MWDjM-17" value="- roomId : int" style="text;strokeColor=none;fillColor=none;align=left;verticalAlign=top;spacingLeft=4;spacingRight=4;overflow=hidden;rotatable=0;points=[[0,0.5],[1,0.5]];portConstraint=eastwest;" parent="-hR4shmU22gH0cobKzlt-230" vertex="1">
          <mxGeometry y="104" width="350" height="26" as="geometry" />
        </mxCell>
        <mxCell id="-hR4shmU22gH0cobKzlt-232" value="" style="line;strokeWidth=1;fillColor=none;align=left;verticalAlign=middle;spacingTop=-1;spacingLeft=3;spacingRight=3;rotatable=0;labelPosition=right;points=[];portConstraint=eastwest;" parent="-hR4shmU22gH0cobKzlt-230" vertex="1">
          <mxGeometry y="130" width="350" height="8" as="geometry" />
        </mxCell>
        <mxCell id="lHE6Wv-7FE4Djr_MWDjM-89" value="+ getRecordingData() : videoId, videoPath, recordTime, roomId" style="text;strokeColor=none;fillColor=none;align=left;verticalAlign=top;spacingLeft=4;spacingRight=4;overflow=hidden;rotatable=0;points=[[0,0.5],[1,0.5]];portConstraint=eastwest;" parent="-hR4shmU22gH0cobKzlt-230" vertex="1">
          <mxGeometry y="138" width="350" height="26" as="geometry" />
        </mxCell>
        <mxCell id="lHE6Wv-7FE4Djr_MWDjM-90" value="+ setRecordingData(videoId, videoPath, recordTime, roomId)" style="text;strokeColor=none;fillColor=none;align=left;verticalAlign=top;spacingLeft=4;spacingRight=4;overflow=hidden;rotatable=0;points=[[0,0.5],[1,0.5]];portConstraint=eastwest;" parent="-hR4shmU22gH0cobKzlt-230" vertex="1">
          <mxGeometry y="164" width="350" height="26" as="geometry" />
        </mxCell>
        <mxCell id="-hR4shmU22gH0cobKzlt-280" style="edgeStyle=orthogonalEdgeStyle;rounded=0;orthogonalLoop=1;jettySize=auto;html=1;endArrow=block;endFill=0;" parent="1" source="-hR4shmU22gH0cobKzlt-272" target="-hR4shmU22gH0cobKzlt-156" edge="1">
          <mxGeometry relative="1" as="geometry">
            <Array as="points">
              <mxPoint x="570" y="1260" />
              <mxPoint x="570" y="1260" />
            </Array>
          </mxGeometry>
        </mxCell>
        <mxCell id="-hR4shmU22gH0cobKzlt-272" value="Instant Meeting Room Controller" style="swimlane;fontStyle=1;align=center;verticalAlign=top;childLayout=stackLayout;horizontal=1;startSize=26;horizontalStack=0;resizeParent=1;resizeParentMax=0;resizeLast=0;collapsible=1;marginBottom=0;" parent="1" vertex="1">
          <mxGeometry x="520" y="1293" width="210" height="34" as="geometry" />
        </mxCell>
        <mxCell id="-hR4shmU22gH0cobKzlt-273" value="" style="line;strokeWidth=1;fillColor=none;align=left;verticalAlign=middle;spacingTop=-1;spacingLeft=3;spacingRight=3;rotatable=0;labelPosition=right;points=[];portConstraint=eastwest;" parent="-hR4shmU22gH0cobKzlt-272" vertex="1">
          <mxGeometry y="26" width="210" height="8" as="geometry" />
        </mxCell>
        <mxCell id="-hR4shmU22gH0cobKzlt-281" style="edgeStyle=orthogonalEdgeStyle;rounded=0;orthogonalLoop=1;jettySize=auto;html=1;endArrow=block;endFill=0;" parent="1" source="-hR4shmU22gH0cobKzlt-277" target="-hR4shmU22gH0cobKzlt-156" edge="1">
          <mxGeometry relative="1" as="geometry">
            <Array as="points">
              <mxPoint x="430" y="1250" />
              <mxPoint x="430" y="1250" />
            </Array>
          </mxGeometry>
        </mxCell>
        <mxCell id="-hR4shmU22gH0cobKzlt-277" value="Team Meeting Room Controller" style="swimlane;fontStyle=1;align=center;verticalAlign=top;childLayout=stackLayout;horizontal=1;startSize=26;horizontalStack=0;resizeParent=1;resizeParentMax=0;resizeLast=0;collapsible=1;marginBottom=0;" parent="1" vertex="1">
          <mxGeometry x="270" y="1280" width="210" height="60" as="geometry" />
        </mxCell>
        <mxCell id="-hR4shmU22gH0cobKzlt-278" value="" style="line;strokeWidth=1;fillColor=none;align=left;verticalAlign=middle;spacingTop=-1;spacingLeft=3;spacingRight=3;rotatable=0;labelPosition=right;points=[];portConstraint=eastwest;" parent="-hR4shmU22gH0cobKzlt-277" vertex="1">
          <mxGeometry y="26" width="210" height="8" as="geometry" />
        </mxCell>
        <mxCell id="-hR4shmU22gH0cobKzlt-279" value="+ record()" style="text;strokeColor=none;fillColor=none;align=left;verticalAlign=top;spacingLeft=4;spacingRight=4;overflow=hidden;rotatable=0;points=[[0,0.5],[1,0.5]];portConstraint=eastwest;" parent="-hR4shmU22gH0cobKzlt-277" vertex="1">
          <mxGeometry y="34" width="210" height="26" as="geometry" />
        </mxCell>
        <mxCell id="lHE6Wv-7FE4Djr_MWDjM-38" style="edgeStyle=orthogonalEdgeStyle;rounded=0;orthogonalLoop=1;jettySize=auto;html=1;dashed=1;endArrow=open;endFill=0;" parent="1" source="-hR4shmU22gH0cobKzlt-194" target="Hz_aNHwt8BgAc0QITuWz-55" edge="1">
          <mxGeometry relative="1" as="geometry">
            <Array as="points">
              <mxPoint x="910" y="-280" />
            </Array>
          </mxGeometry>
        </mxCell>
        <mxCell id="lHE6Wv-7FE4Djr_MWDjM-44" style="edgeStyle=orthogonalEdgeStyle;rounded=0;orthogonalLoop=1;jettySize=auto;html=1;dashed=1;endArrow=none;endFill=0;startArrow=open;startFill=0;" parent="1" source="-hR4shmU22gH0cobKzlt-117" target="-hR4shmU22gH0cobKzlt-194" edge="1">
          <mxGeometry relative="1" as="geometry">
            <Array as="points">
              <mxPoint x="570" y="-227" />
              <mxPoint x="570" y="-227" />
            </Array>
          </mxGeometry>
        </mxCell>
        <mxCell id="lHE6Wv-7FE4Djr_MWDjM-54" style="edgeStyle=orthogonalEdgeStyle;rounded=0;orthogonalLoop=1;jettySize=auto;html=1;dashed=1;endArrow=open;endFill=0;" parent="1" source="Hz_aNHwt8BgAc0QITuWz-30" target="-hR4shmU22gH0cobKzlt-173" edge="1">
          <mxGeometry relative="1" as="geometry">
            <Array as="points">
              <mxPoint x="120" y="70" />
            </Array>
          </mxGeometry>
        </mxCell>
        <mxCell id="lHE6Wv-7FE4Djr_MWDjM-55" value="1..*" style="text;html=1;strokeColor=none;fillColor=none;align=center;verticalAlign=middle;whiteSpace=wrap;rounded=0;" parent="1" vertex="1">
          <mxGeometry x="1510" y="410" width="40" height="20" as="geometry" />
        </mxCell>
        <mxCell id="lHE6Wv-7FE4Djr_MWDjM-56" value="1" style="text;html=1;strokeColor=none;fillColor=none;align=center;verticalAlign=middle;whiteSpace=wrap;rounded=0;" parent="1" vertex="1">
          <mxGeometry x="1650" y="596" width="40" height="20" as="geometry" />
        </mxCell>
        <mxCell id="lHE6Wv-7FE4Djr_MWDjM-57" value="1" style="text;html=1;strokeColor=none;fillColor=none;align=center;verticalAlign=middle;whiteSpace=wrap;rounded=0;" parent="1" vertex="1">
          <mxGeometry x="1400" y="-194" width="40" height="20" as="geometry" />
        </mxCell>
        <mxCell id="lHE6Wv-7FE4Djr_MWDjM-58" value="1..*" style="text;html=1;strokeColor=none;fillColor=none;align=center;verticalAlign=middle;whiteSpace=wrap;rounded=0;" parent="1" vertex="1">
          <mxGeometry x="1420" y="60" width="40" height="20" as="geometry" />
        </mxCell>
        <mxCell id="lHE6Wv-7FE4Djr_MWDjM-67" value="1" style="text;html=1;strokeColor=none;fillColor=none;align=center;verticalAlign=middle;whiteSpace=wrap;rounded=0;" parent="1" vertex="1">
          <mxGeometry x="56" y="-330" width="40" height="20" as="geometry" />
        </mxCell>
        <mxCell id="lHE6Wv-7FE4Djr_MWDjM-68" value="1" style="text;html=1;strokeColor=none;fillColor=none;align=center;verticalAlign=middle;whiteSpace=wrap;rounded=0;" parent="1" vertex="1">
          <mxGeometry x="56" y="-169" width="40" height="20" as="geometry" />
        </mxCell>
        <mxCell id="lHE6Wv-7FE4Djr_MWDjM-69" value="1" style="text;html=1;strokeColor=none;fillColor=none;align=center;verticalAlign=middle;whiteSpace=wrap;rounded=0;" parent="1" vertex="1">
          <mxGeometry x="86.5" y="-251" width="40" height="20" as="geometry" />
        </mxCell>
        <mxCell id="lHE6Wv-7FE4Djr_MWDjM-73" value="1" style="text;html=1;strokeColor=none;fillColor=none;align=center;verticalAlign=middle;whiteSpace=wrap;rounded=0;" parent="1" vertex="1">
          <mxGeometry x="-268.5" y="340" width="40" height="20" as="geometry" />
        </mxCell>
        <mxCell id="lHE6Wv-7FE4Djr_MWDjM-74" value="1" style="text;html=1;strokeColor=none;fillColor=none;align=center;verticalAlign=middle;whiteSpace=wrap;rounded=0;" parent="1" vertex="1">
          <mxGeometry x="-301.5" y="250" width="40" height="20" as="geometry" />
        </mxCell>
        <mxCell id="lHE6Wv-7FE4Djr_MWDjM-75" value="1" style="text;html=1;strokeColor=none;fillColor=none;align=center;verticalAlign=middle;whiteSpace=wrap;rounded=0;" parent="1" vertex="1">
          <mxGeometry x="-266" y="370" width="40" height="20" as="geometry" />
        </mxCell>
        <mxCell id="lHE6Wv-7FE4Djr_MWDjM-76" value="1" style="text;html=1;strokeColor=none;fillColor=none;align=center;verticalAlign=middle;whiteSpace=wrap;rounded=0;" parent="1" vertex="1">
          <mxGeometry x="-308.5" y="370" width="40" height="20" as="geometry" />
        </mxCell>
        <mxCell id="lHE6Wv-7FE4Djr_MWDjM-78" value="1" style="text;html=1;strokeColor=none;fillColor=none;align=center;verticalAlign=middle;whiteSpace=wrap;rounded=0;" parent="1" vertex="1">
          <mxGeometry x="-266" y="410" width="40" height="20" as="geometry" />
        </mxCell>
        <mxCell id="lHE6Wv-7FE4Djr_MWDjM-79" value="0..*" style="text;html=1;strokeColor=none;fillColor=none;align=center;verticalAlign=middle;whiteSpace=wrap;rounded=0;" parent="1" vertex="1">
          <mxGeometry x="-306" y="508" width="40" height="20" as="geometry" />
        </mxCell>
        <mxCell id="lHE6Wv-7FE4Djr_MWDjM-82" value="1" style="text;html=1;strokeColor=none;fillColor=none;align=center;verticalAlign=middle;whiteSpace=wrap;rounded=0;" parent="1" vertex="1">
          <mxGeometry x="-219.5" y="769" width="40" height="20" as="geometry" />
        </mxCell>
        <mxCell id="lHE6Wv-7FE4Djr_MWDjM-83" value="1" style="text;html=1;strokeColor=none;fillColor=none;align=center;verticalAlign=middle;whiteSpace=wrap;rounded=0;" parent="1" vertex="1">
          <mxGeometry x="-219.5" y="719" width="40" height="20" as="geometry" />
        </mxCell>
        <mxCell id="lHE6Wv-7FE4Djr_MWDjM-84" value="1" style="text;html=1;strokeColor=none;fillColor=none;align=center;verticalAlign=middle;whiteSpace=wrap;rounded=0;" parent="1" vertex="1">
          <mxGeometry x="-351" y="732" width="40" height="20" as="geometry" />
        </mxCell>
        <mxCell id="lHE6Wv-7FE4Djr_MWDjM-85" value="1" style="text;html=1;strokeColor=none;fillColor=none;align=center;verticalAlign=middle;whiteSpace=wrap;rounded=0;" parent="1" vertex="1">
          <mxGeometry x="-351" y="769" width="40" height="20" as="geometry" />
        </mxCell>
        <mxCell id="lHE6Wv-7FE4Djr_MWDjM-86" value="1" style="text;html=1;strokeColor=none;fillColor=none;align=center;verticalAlign=middle;whiteSpace=wrap;rounded=0;" parent="1" vertex="1">
          <mxGeometry x="86.5" y="-210" width="40" height="20" as="geometry" />
        </mxCell>
        <mxCell id="lHE6Wv-7FE4Djr_MWDjM-107" style="edgeStyle=orthogonalEdgeStyle;rounded=0;orthogonalLoop=1;jettySize=auto;html=1;dashed=1;startArrow=none;startFill=0;endArrow=open;endFill=0;" parent="1" source="-hR4shmU22gH0cobKzlt-117" target="-hR4shmU22gH0cobKzlt-156" edge="1">
          <mxGeometry relative="1" as="geometry">
            <mxPoint x="-110" y="-600" as="sourcePoint" />
            <Array as="points">
              <mxPoint x="220" y="-127" />
              <mxPoint x="220" y="1040" />
            </Array>
          </mxGeometry>
        </mxCell>
        <mxCell id="Lg5VZ4tljGDv4giq6nzH-1" value="Character Panel" style="swimlane;fontStyle=1;align=center;verticalAlign=top;childLayout=stackLayout;horizontal=1;startSize=26;horizontalStack=0;resizeParent=1;resizeParentMax=0;resizeLast=0;collapsible=1;marginBottom=0;" parent="1" vertex="1">
          <mxGeometry x="-140" y="1413" width="170" height="60" as="geometry" />
        </mxCell>
        <mxCell id="Lg5VZ4tljGDv4giq6nzH-2" value="- renderedCharacter : Video" style="text;strokeColor=none;fillColor=none;align=left;verticalAlign=top;spacingLeft=4;spacingRight=4;overflow=hidden;rotatable=0;points=[[0,0.5],[1,0.5]];portConstraint=eastwest;" parent="Lg5VZ4tljGDv4giq6nzH-1" vertex="1">
          <mxGeometry y="26" width="170" height="26" as="geometry" />
        </mxCell>
        <mxCell id="Lg5VZ4tljGDv4giq6nzH-3" value="" style="line;strokeWidth=1;fillColor=none;align=left;verticalAlign=middle;spacingTop=-1;spacingLeft=3;spacingRight=3;rotatable=0;labelPosition=right;points=[];portConstraint=eastwest;" parent="Lg5VZ4tljGDv4giq6nzH-1" vertex="1">
          <mxGeometry y="52" width="170" height="8" as="geometry" />
        </mxCell>
        <mxCell id="Lg5VZ4tljGDv4giq6nzH-5" value="&lt;&lt;external&gt;&gt;&#xa;Stereophonic System" style="swimlane;fontStyle=1;align=center;verticalAlign=top;childLayout=stackLayout;horizontal=1;startSize=40;horizontalStack=0;resizeParent=1;resizeParentMax=0;resizeLast=0;collapsible=1;marginBottom=0;" parent="1" vertex="1">
          <mxGeometry x="420" y="589" width="160" height="50" as="geometry" />
        </mxCell>
        <mxCell id="Lg5VZ4tljGDv4giq6nzH-6" value="" style="line;strokeWidth=1;fillColor=none;align=left;verticalAlign=middle;spacingTop=-1;spacingLeft=3;spacingRight=3;rotatable=0;labelPosition=right;points=[];portConstraint=eastwest;" parent="Lg5VZ4tljGDv4giq6nzH-5" vertex="1">
          <mxGeometry y="40" width="160" height="10" as="geometry" />
        </mxCell>
      </root>
    </mxGraphModel>
  </diagram>
</mxfile>
